/* XPM */
static char *dummy[]={
"61 122 38 1",
". c None",
"z c #000000",
"s c #080808",
"J c #0e1a16",
"v c #101010",
"G c #10201c",
"t c #171719",
"F c #1a2e26",
"x c #1c1c24",
"p c #202020",
"n c #282828",
"u c #2a2a2e",
"H c #2e4236",
"q c #303030",
"w c #373739",
"E c #381c18",
"o c #383838",
"B c #3e3e4a",
"r c #404040",
"h c #484848",
"A c #4b4b55",
"m c #505050",
"C c #56322a",
"I c #565662",
"l c #585858",
"i c #606060",
"D c #613e2f",
"e c #686868",
"# c #707070",
"d c #787878",
"a c #808080",
"c c #888888",
"b c #909090",
"j c #989898",
"k c #a0a0a0",
"g c #a8a8a8",
"f c #b0b0b0",
"y c #bcbcbc",
"...................#abcd...............edbca.................",
"..................abfggd..............hiajkkd................",
".................ebjfjadl.............hiabbkbd...............",
"................ieaad#lldm...........noll#cbbcd..............",
"................lea#mmld#l...........npqorqrh#e#.............",
"................omrrhhddm............nnnqnhibfga.............",
"...............qppoqredlr.............nnnridabjb.............",
"...............ppnollclho.............pqphomhi#a.............",
"...............pnoidkkior.............nnnhhleem#a............",
"...............nqecjadoqn.............stqqnrh#lre............",
"...............nqeccceqtn.............tsqnnpridmh............",
"..............nnqecd#ontn.............ssnnnpum#im............",
"..............nohca#evpnn.............tsvnnouoe##............",
".............oroacddntvpp.............ssstnouqq#a#...........",
"............ooohabampnpt..............ppssnnrqoraaa..........",
"............ohhlcamppnpt..............qppstnrhrr#bc..........",
"...........ohhmijiupnpnp..............qptsvnolmolab#.........",
"...........hhhhcbrutvunn.............qonpsssqhlwhaba.........",
"..........hmlhebarppppnq.............qoovsssnhhlheacd........",
"..........mimhbgenutptnn.............ooopsvpsrheihdcc........",
".........mlimhjjrtqtptpn.............qonvvvptqmeereabd.......",
".........milh#b#qpnptrnp.............qonvspqtvheeihdbd.......",
"........mieihaamnnpqpirpp............nonssoqpvpmilreba.......",
"........liehic#qpnootmerp............pqnvtqntpnmiiihck#......",
".......lielh#clqpqootqmer...........nnqpttnohpntmeeh#ja......",
".......leeimcbhqpqrrnnhedl.........npnnptppempstqieelab......",
".......l#emmcarpnohhqxnm#el..ie#acelpnppvn#drptvth#dmijc.....",
"......mieimicaqpnorhqrahlmrrhiacgbaihntthddlnpnpnh##hhdb.....",
"......ieelhedantnoohqodghoqrmedcjkcilwhleeehnqrtnredimdb.....",
"......l#ehmddipvpqrhnnicjrohmi#ccddimmlebimtqhmpvqed#mijd....",
".....me#ihmd#ontqomhnnq#bjimhie#addmhegyarpnqmhutnedilmbj....",
".....laeiridenppnohhrpum#derille##ilabjdnpprhmoutpi#e#hck....",
"....mia#lhedeppnnommqptroooqlieeilmiedloptnormrptpideehakd...",
"....medehmddlpxpnohooptnhonpohlmhnqqhmowsvnqorqnppieelh#bb...",
"....ladirmdihppvqohonuppiwrmhnooppqrnrhwsvnqoqqnpuhiimheba...",
"...lea#lrmdiopttoronvvpmeromioohohlmom#lnppqnqwqpnodelhibai..",
"...iac#mridlqttnqqpppvwmdimoqncb#nqrmajchptpnqwupnoidlhibce..",
"...eccehoealtpupoqttpvprleihmelamlme#adiqvtptnuwtpoe#iricbc..",
"..ldbcehridlppunnttssttssohmionezhemmmovsstvntuptupl#irmabj#.",
"..lcbaemrielppwnnrrlrpnppwqomtn#nnhoxnnsszvnnnnntxnl#irmaabd.",
"..icccehhielppnnhmeeihnnnhmomrnloxohhouvspqrmmroutnm#ermajcdi",
".lebbaemmiemptxmlmmmlroppnmlmrihirmemntsspmlielhwvxhdihm#daee",
".m#cjdirhilhxsh##eehlhoptvomhede#hilnnssnhee#hhmmtpreerm#dc#e",
".m#cjelrmlmhtzle#aaihhquqarqqromrrxqqsvznheemmeelnnrmerledc#e",
".ldccemrhlmhtsmii#d#hrotqkeenemq#oahdsztnohlhicalnpomehii#ade",
".lcbcemrrhmrsqmiieeelqotnaichj#hchjm#zzznnhhhec#mqporehmi#ad#",
"mlcjammoohmozomliieimoqpvlrkrfelgmyeozzzvpooieemroxorlhrl#ddi",
"miccamrqqohoshhhmrhmonnttmqmmdmmdo#nrszsvpqohimmrpnoolhrl#dee",
"midc#mrqqwrqnie#ihwntsnpprodqmwzhtmmhsvvvvtnrhoqnoonomhoieeei",
"hi#d#mopqqonnhedcemnvzsvpohchjmn#lelnsvvsssvwwtxnhnnoowoliiei",
"hiedimwxupppqhedadlonnopvpr#hcahgednszspnnvvpqpnlimnnrqomliii",
"hle#mhqpppnpwhlleeihpqhrtpqqle##bmmsznoonvszvtpmielnnnrrmliim",
"rllehrqpnm#bbfkkc#lqtnsssvnrhmllirovzzzzsvsssvoie#ipnqqrmiiim",
"rllmroqntpoiabgfgjcvsvvxxvpqmdakbetsnhmhmqvsvnmedaehtpqomlilm",
"rmlmwqnxpszvnpldjgfgaimrhoxtrebkdhszznnqwqnsppmdbb#htptqhlilm",
"rmlhwqqttptnsvppreckkj#otvsvtrhihpzzzsvvvvttpnlaca#mvttnhlimr",
".hmhoqqtptvpnunptpmadccipwnvzsszzsznhmmrrrovsple#eeltsppohlho",
".rmroq.pnpuoqqupvtnmecdewnsszzzzzzzznohhwqpnvpl#e#deppp.rrlh.",
".rmho...qqqrhhowwnwhm##imnszzzzzzzzzzzzzzsptsprll#denp...rmh.",
".rhho...rldcgkkkkbcde#eidciwszzzzzzzzzzzztttssolllemqn...rmo.",
"..hho...nnnhmei#aaccdileedbjamhqzzzzzzzzztttstormeimo....hmo.",
"..rro....ttvvvpwhmmmmrhmidajgjjdoqnzzzzzspvsssqoi#imq....hmo.",
"..ror....svvzsvvstpnoooomme#abjka#rnqoorontvsspolihmq....hr..",
"..oor....sxpssvxstvvpnqoorhmli##cbbbjffkbaosstsohhrho....ro..",
"...oo....pnpsnnnxptvttppnwwhohdjjkkfjb#irorttvspqnqnq....or..",
"...oo....vxpnoooqqtxvvvtxtpolakjbaeimhoormroustnpppvp....oo..",
"...oo....svqqrrhrontvvvzvzom#d##ihwwvvprmi##elhonvsnlee..o...",
"....o....vnohhiiielmrrorhmlieeemwnnvsssvnrli#eemrupmiddd.....",
"....o...pnohmledaca##illmmliieehvsvvxvszznrrmlmmpqhm#bcc#....",
".......ntohmlidaccd#ellmhrmmieihpszsvpqpvsvpqohqtthhddcdc#...",
"......nnpohlei#dada#eimArBBrhlllmhhorrhmhosxonnvunrmiee#d#...",
"......nonqhlieee#eeilmooqnuqrmmidaabjjcaaddirqrppnoomllell...",
"......ohopqhmliieiimhonnvvvtpormllieeiiiiihoqnqtsnnqrmmhlm...",
"......nhhntoorhhrrqqqnxvsvszzsvxpooohhrooqnxvssssppqoooomo...",
"......nohosvpnqqnnutvvssszzzzzzzzzsvvvtzzzzzzzzzsttnxxxqo....",
".......nronvttvttvtvszzzzzzzzzzzzzzzvvzzzzzzzzzzvvtvtvvp.....",
".......pnonvvvvvtvzzzzzzzzzzzvtszzzspvvvvvzzztptvvtttxpq.....",
".......ppnnptvstvsszzzzzzzzspnpvsvvttssvvxszsvtnttttvpq......",
"........tnppnvsvssszzzzzzzzzzzzssvtppnnvvvszzsnnqntsxp.......",
".........svnnpptsvsszsssszzzzzzzstpnqorovvszztuoqqtvxn.......",
"...........vnnnpsstsspqqvsszzzzsvpqrhhrqvszssnqrqnvxn........",
"............vnqqxpvpsxqnvpxssvvvpqrlmhnsvssstnrruqxn.........",
".............vnqnnuvvtxxnntvqptpnqqnnttssszsnorqnup..........",
"..............vpqqnsxnpppxsvnpppnnptttvzssztnqqqppp..........",
"..............zxnqqnvqqqnxsstpppptvsvtszszsnnnqntp...........",
"...............zxqrrntxppvszsttppptsvxszssspnpnpp............",
"...............zpnohrntpvszzvttttsvstxsssspppppp.............",
"................ztqrhrqpszzsvpqpvtssttsppvutpvp..............",
"................zvtqorrvzzsvnqqnpvsstvsnqpvvtv...............",
"................zsvnohruszvsnorppvsstpsxrrxvpt...............",
"................ztsvqhmoustnomhhpvvsppvsqrqptt...............",
"................zsnxpmlhqvpCDlmrpptspopxvxnpvp...............",
".................snpxmimrxnCDlmrpptvtrrrrqtpt................",
".................pntprllrxqCDlmrpptvtrlmmhnpt................",
".................tnttohmrppCommhptttpqiemhqpp................",
".................tnptqhlrpxqnhmrntsvtph#emott................",
".................tpvpnohrppnEhhonvstvpo#amopp................",
".................ptvqnoqrppEDhropptsvvn#dmhtt................",
".................ppromorqpnCDhhqpptvtppiiimnt................",
".................qrhmllmnprrohmnppttppqll##lor...............",
"................mlmmmederponomlnptttvprleiimmro..............",
"..............hieiiliidarrnnrlmpntsvvqmaadiimhh..............",
".............mecad#leeaionnnqoqnnvstvriadaedemho.............",
".............hi#eeim#i#lnqqnnnnpptstthlleddlimrq.............",
".............oorqhe#aieirhCqnnqpptpsthmrhemlmnqh.............",
"..............qnnnmeehemvqrhrpntpnnnrrrnr#hhhnpn.............",
"................nprmhmhonnnqntpvtvspnnqomlonhqno.............",
"................npqntnnttppnntpvtvspnnvtnqstttn..............",
"................ttnqnssstvssvtvtvsssssssssFFzt...............",
"...............tppohhnnnqoqvpontptpsssntntoqpnt..............",
"..............ttqprqhmhhilrhmrorrnopnnnqnrhnnpts.............",
"..............npvspvqommlhrrhleehrrohhhnnqnnptpss............",
".............sEpvtspvvvvtrhimoohqoonqqpptpppptpEs............",
".............vtpnqpnqpoopnnnnnpnptnnpptpppnpnnopss...........",
"............vsvpoqqChhEEnrqoonpppppppppqoorhooqpss...........",
"............sstpnnonmlhhlrhhhhohAAhAAAmhhmmhhoqnts...........",
"............vpvpnnnprhmmhmmilmelehrhl#llmhohoqntG............",
".............vsvvpttnqooHomlAmAIIHmlliiiimnoopss.............",
"...............zstvstpqqrHhhrhrhommmilleloGnns...............",
".................zzsvtFGpFooorrrrhomhhonoqvv.................",
"....................ztJGpGpnnqqrqoHnqnppnt...................",
"..........................GssFGppGFvGG......................."};
