/* XPM */
static char *dummy[]={
"31 57 20 1",
". c None",
"r c #080808",
"p c #0c0c0c",
"n c #141414",
"q c #1c1c1c",
"h c #201814",
"m c #240808",
"e c #28201c",
"f c #302420",
"i c #342c28",
"# c #3c342c",
"b c #443834",
"d c #4c4038",
"j c #544840",
"o c #5c4c48",
"a c #64544c",
"g c #6c5c54",
"c c #706058",
"k c #786860",
"l c #807064",
"...............#ab.............",
".............###cdef...........",
".............facccge...........",
".............he#cefh...........",
"...............fce.............",
"...............#cf.............",
".....eehe...idjakjjbi....eehe..",
".....flce..fdcckkkgcif...ekce..",
"...#bakab#d#acfbjbigj#feidkjihh",
"...faccgklllgkbm.makjajjaccgkjh",
"...ehjcaibebcljm.mckabhibdcjinn",
".....eaje..fgk#joackjf...eaje..",
".....hhhh...dllllkkkb....hhhh..",
"............eidolobbh..........",
"...............ilj.............",
"...............dkj.............",
"...............jl#.............",
"...............dkd.............",
"...............bc#.............",
"...............jgj.............",
"..............igggb............",
".............ejcccce...........",
"............ebaaaaaae..........",
".....hehhfboaaaaaaaoojdbf......",
".....eiehijbjbjjjjoodojdf......",
"...nheffiii#bbbb###iiiiiieeh...",
"..pqeqqqqdjjoododoojojojood#...",
"hhhhhhee##iiii##i#iiiiiiiffffh.",
"hhqqqhibdbdd#b#ifi#bjddbibddbih",
"hhhhhhf#dddbd#d#i#bdjjb#ibdbd#e",
"hhhhqqfb#bd#dddb#bdbbd#ihib#b#h",
"...hhhhhehhhhhheeeehhhehhheeeee",
"...hhehefi#i##i#bdbifei#iif....",
"...hehhef#dbjj#jbjobbfbobdi....",
"...hhehffbddjobodoodjidodo#....",
"...heeeffbjdoododoojo#jojob....",
"...heffiidjoodjojjooobjojod....",
"...ehhfiidjjofjo#jof#djijod....",
"...ehhi#ibjodefgiiofoijfjd#....",
"...fei#i#djooio#jiofo#jijbo....",
"...fehii#jjooooojodjojjojaj....",
"...ffeiiijdoodbifo#iio#ojod....",
"...eifii#bjobbgojooooojojod....",
"...eiiiijajadg#bbbo###j#jod....",
"...eii#iojjoaooojojdaojodob....",
"...efii##jjoo###########dod....",
"...hefi#bjjjoddaoooooododob....",
"...hfeiiidjjjacjjoobooabjb#....",
"...hhf##iidjjoojdoojjooad#f....",
"...hhhfiiidbbdoodjjdddjbjeh....",
"..hqiffeefiiffffiiiiiffffffe...",
"fi#fheqfeiii##bbbb#b#b#b#b#ir..",
"hhqfi#hheeeeeeeeeeeeeeeeeeehhh.",
"hhhqqqfi###ii####bb###b#######r",
"hnhhhqei#i######bbb#b###b####ir",
"..hnhhq###i##iibbibbbiiiiiiiifr",
".....hneehhheeeeeeeeehhhhhhhhhh"};
