/* XPM */
static char *dummy[]={
"43 50 24 1",
". c None",
"d c #080808",
"# c #0c0c0c",
"c c #141414",
"a c #1c1c1c",
"b c #202020",
"e c #242424",
"j c #282828",
"f c #2c2c2c",
"m c #303030",
"n c #343434",
"g c #383838",
"i c #3c3c3c",
"p c #404040",
"h c #444444",
"l c #484848",
"o c #4c4c4c",
"k c #505050",
"q c #545454",
"r c #585858",
"t c #5c5c5c",
"s c #606060",
"u c #686868",
"v c #707070",
"....................#abacd.................",
"................#efgghihhifc...............",
"..............cjghkkkkkklhhifd.............",
".............agggkkmejeebfhiigc............",
"............egggkkjjjmmmmnjfihi#...........",
"...........afmnkkmjjnkkgmhgmnhhm...........",
"..........cejfkkfiifihkhnghhbgiga..........",
".........abfffkfhhifkhklngilgfiim..........",
"........aeeeeokfihpmkhkhigilhagige#........",
"......#caajihkhnilhmhkkkpgilhnaigiied......",
".....#bejnihjffnhlimhhkkkglooifafiiim#.....",
"....#aaanhhjnimiiligikkkiklkihinbbniigd....",
"....#aamhhfgiinpilliihkhigkkiihinjaniie....",
"....#bjghgeiihgilligihkliiikiiliiffbiin....",
"...dcabghhjihigilifbjfklabmiiihiimnjihid...",
"...#aceghhfiiohinjbjfflkeecfgiiiinpnihic...",
"...#babnhhfioohgeefngflkffeajihiinphihh#...",
"...#eacghljiloiejgilifhkmgmebfhhhgpqgiic...",
"...#jcbgoljiipmenpkrlnkknpgpeeghhgpsniic...",
"...#fabgolfippbfmgiigikomnmfeejhhhprniic...",
"...#mebnolfihphoooooookohhhhhhhhhhpspiia...",
"...#ffbgolfiiphhhhhhhhkoloooooohihptnhia...",
"...#gmbiolfggnjbjffjfpkoijfejemhhhprnhia...",
"...#ngbihleginbefnmmjmhhnfngnngihhponilc...",
"...#fgaiohjihnffoignmglhfmihigiihiihngkc...",
"...#fgaglhjiinmltrlihnhhfgoohimhhiiigqla...",
"...#jnagihjiinijottkknilnkrohimhhhmhrhia...",
"...#nnafihjiinifihostgppmoliiimiiiirhhia...",
"...#neaefhjiinifinnmgipiiifiihmiihgtlif#...",
"...#mebblhjiinifiiimgiphihmiihmiiigtggaj...",
"...#mmehihjiiggfignngpppihniiiniiiirnefn...",
"...#feigihfgijimgnejnpepjajiijnhjigrglpa...",
"...#feegihfniagmmelgapapiifiijajiiitnipa...",
"...#feagihfgieeeiaieeppeiibiibnihiitmgic...",
"...#jeagghfgiainieigeieaeifmijbjhihrmgic...",
"...dbjagihfggginigginiigigighigiiiirnggc...",
"...aajangijggbbbegjffijejjikfffjiiirggna...",
"...aaaaniijggggiiggiiiiiigogiiihhiitimma...",
"...#aaagiifnilrttstssssttsuvvuussssqfjfb#..",
"cnjeaaegiihlhihgggiiiiggggnnnnmnnnnmfffa##.",
"caiookqhgfoilrrqqohrrrkphstttttrrrrrqqqklnc",
"caafnnnjafgfggiinfmngnmhrigmminimifffiiiiib",
"ccafnnpehgnfgggggmmggiokggggmmniiijmfiigiib",
"ccafgnghggnmggggggmgngngiiiiggnggimgmggiiej",
"cjabnnnnnggngfjhgimiigggigggginigiminiiimbg",
"cabcennnnggngehnggmiiggggiiiiiiiinningggjla",
"cjafannngggnghgggingggigggiiinfiiiniiiggpga",
"###fnnnnjhnngggnggnfgiigggiiihmeggiiiiiigga",
".#cammfelmngnggggmcmffignnnnmmheamnnnmmmmfa",
"..#aaaanfaeeebbbbccnjjjeeebbaccc#ccabbbb###"};
