/* XPM */
static char *dummy[]={
"46 82 35 1",
". c None",
"E c #000000",
"w c #080808",
"C c #0c0c0c",
"v c #141414",
"t c #1c1c1c",
"x c #201814",
"s c #202020",
"f c #242424",
"y c #28201c",
"h c #282828",
"l c #2c2c2c",
"z c #302420",
"c c #303030",
"A c #342c28",
"m c #343434",
"n c #383838",
"B c #3c342c",
"# c #3c3c3c",
"b c #404040",
"D c #443834",
"a c #444444",
"k c #484848",
"F c #4c4038",
"u c #4c4c4c",
"e c #505050",
"G c #544840",
"j c #545454",
"o c #5c5c5c",
"d c #606060",
"g c #686868",
"i c #707070",
"p c #787878",
"r c #808080",
"q c #888888",
"......................#abc....................",
"......................#def....................",
"......................#gah....................",
"......................#iaf....................",
"......................bdaf....................",
"......................agef....................",
"......................aijh....................",
"......................#dkf....................",
".............chllmlmnbogafcm##b##mh...........",
".............mipqqrpiprppdpidgdiief...........",
".............hakakejjedpjaakkkejens...........",
".............hhshhsfhh#dkttttttttst...........",
"......................hget....................",
"......................fdet....................",
"......................hiet....................",
"......................hgkt....................",
"......................hokt....................",
"......................ldas....................",
"......................cjks....................",
"......................lkas....................",
"......................lobs....................",
"......................hbms....................",
"...............bkuejjdgdeeeealhcs.............",
"...............aujukeodojjjujacbl.............",
"...............uujaejogoakjkumbhh.............",
"...............bu#kjojdedbkuahhch.............",
"...............lmakuuedaujmbafhfs.............",
".....vvvtttstsstsssssttttttsssststttttvwwv....",
".....xyzzzhhzAAzAzAAAAAAAAAAAAAAAAlxxfvwtv....",
".....yyAAzzBBBBBBBBBBBBBABBBBBBBAAhwxCthCv....",
".....AzAABABBBBBBBAAzBBcBBBBAAzzAAAhCthtts....",
".....ByzAAABBBBAABAzABBBBBBABBBAmAAthtftlh....",
".....zAzzyzAABABADBBzABABBBBBBAzDAfhEwtctC....",
".....yzyyAzyxzBFABFDBzABzzAAAzyFAAAhEthttw....",
".....xyADBhxxxxzDAzBFhzzBAyAzxDABhAxCttsvw....",
".....CwwwCCvvCCwwwCCvvvtttxxxzCCwwvwEwww......",
".......CvtttftvthcffstssfftttttCwttwwwww......",
".......vsshl#hllcbmcclmhmlhhlhhfhvtwwwwE......",
"........CCvtcttttttttttttttvCvsvvEEEE.........",
"..........vtfcfsthhlhtvshhhhvhhfstCtC.........",
"..........vfhcchcbmbnhshnnmltcbmlvvhC.........",
"..........thlcDhba#Damhmlbamhb#mmttsC.........",
"..........tBm##tsffhffssfffhhabmbssht.........",
"..........sBnmmtm#Dmmbmab#b#bubbbtfht.........",
"..........smab#fbDbbmmnbDFmbe##basfst.........",
"..........fBbb#fFDF###cb#FmaombaFhfht.........",
"..........flD##fbtahFtm#hFtadmbultfst.........",
"..........xBDDDfbthasthDsFauo#ansnlst.........",
"..........xxlDFs#tbFDt#DfDsajaFhalhst.........",
"..........xxBDDf#hFF#t#FhFsmouFabfsss.........",
"..........DyxbDfbDaammFmmFDadababhhhs.........",
"..........AFADDhbhshshffshtbdaabbftht.........",
"..........hmmDFhbmmFmmmFbFFbobab#hhst.........",
"..........hmDbFfbhfshDmhfthFe#baDshhv.........",
"..........#lmbbfabmbDBbmaaFbjbbamthtv.........",
"..........lambDfasmhhshhshtbdF#Flthtv.........",
"..........zlbDFtbammb#bbbaaboFmbcshtt.........",
"..........Amm#Ft#Dmm#bbFaaaboucFDhhtt.........",
"..........Amcmbt#Dmm#FbFFFabjam#hlttt.........",
"..........ADcBDtmDDmmbFbFFDFoambmlczt.........",
"..........ADBmDtDbDDmbFFFFBFdab##aszt.........",
"..........hDBBDsbbDBDbbDbBDFoaaDahzzt.........",
"..........zBBDmfFbDDDFDaDBDDeFaFmtssv.........",
"..........sllB#lnujojeooogddjaFb#tsyC.........",
"..........tzlDDDbb#FFFbBBlbauaDbDtfttt........",
"..........ttDDBDBDDDDFDBAhmaabbFhvvszDt.......",
"........wftvhhhhllccmcchhfhhhhfffvsADzyx......",
".......tAAAAAAAAABBBBBBBBBBBBAAAzADFzxxzABFAzC",
".....tABABFGFFDDDFFFGGGGGGFDFDFDBAFzsyABFBDztC",
"...tABBlzhhhzhhzzzhzAAAAzAAzzAAAAAytxAFDBDAttC",
".tzBBBlAzzzzzzzzyyyyyyyyzzzzzzyyyxtxAFFFBAxyxC",
"tzAAABDDFGGGFFFDDDDDDFFFGGGGGGGGFFFFDmBBzxAzxC",
"vfzhhhhhhhhzhhhhhzzhhzAAzhhzzfhhAAAAAzzyxyzBxC",
"vhhhhhzzffhzzzhzzzzhhhzhhhzhhzhzAAAzzzhyxAyAtC",
"vzzzzzzzhhzzzAAhhhhhzhhhhhzAAAAAAAAAAzhyxzAyxC",
"vhzzzzzzhhhzhzzzzzzAAzzzzAAAAAzzzhzzzzhzzxzttw",
"vzzzhzzzzhhhzzzzhhhhAAzzzAAAAzzzzAzAzzzFyytvC.",
"vfzzzzsfzzfsffhzzzzhhhzzAzzzzzzzzzzzhzDAtytC..",
"vsszffssssfzffzzhhzhzzzzzhzzzzzzzzzzzAzyttC...",
"vsfzffssfszzhzzzzzzzzhhhzzzzzzzzfsfzzhhytC....",
"wwCCvvvvvttttttttttssyysyyzzzzzzhhzzzzzyC.....",
"............................xxxxxxxxxvvv......"};
