/* XPM */
static char *dummy[]={
"41 77 37 1",
". c None",
"x c #000000",
"t c #080808",
"w c #0c0c0c",
"u c #141414",
"D c #180c08",
"I c #1c140c",
"v c #1c1c1c",
"G c #201814",
"p c #202020",
"o c #242424",
"F c #28201c",
"n c #282828",
"f c #2c2c2c",
"A c #302420",
"l c #303030",
"B c #342c28",
"b c #343434",
"r c #383838",
"E c #3c342c",
"m c #3c3c3c",
"s c #404040",
"z c #443834",
"i c #444444",
"k c #484848",
"C c #4c4038",
"d c #4c4c4c",
"c c #505050",
"h c #544840",
"q c #545454",
"e c #585858",
"y c #5c4c48",
"a c #5c5c5c",
"# c #606060",
"g c #686868",
"j c #707070",
"H c #787878",
"..................#a###b.................",
"..................cddcef.................",
"..................#db#cb.................",
"...............g##chb#diej#d.............",
"...............#dcklcemddcdf.............",
"...............gcc#gcgadcedn.............",
"...............mflfgb#dnnfno.............",
"..................n#b#ip.................",
"..................fabgko.................",
"..................beb#cf.................",
"..................bqcqao.................",
"..................rdd#if.................",
"............frsmrmsmrlifmlnpttu..........",
"............cgec#gggec##e##erlo..........",
"............likikkdkisikissmvvw..........",
".............wpvfnfovonpplfpxt...........",
".............pbomfibnmdqldmotw...........",
".............fklcskald#crdifuu...........",
".............bqmasd#mdyaskdbvu...........",
".............maiysc#icdek#drpu...........",
"............tickeseaihcckacrvu...........",
"............vdcdhsedicacykcmvu...........",
"............odmbqsaaccaccedzvv...........",
"............Aqnadseacaeccakmvv...........",
"............fhaihskaqyhhgacrvv...........",
"............BCkikscdqhhgeieivv...........",
"............zhhidscyqskdiickvv...........",
"............Cdkidskhelaccdekpvt..........",
"............mhdiksddegc#ecespvu..........",
"...........wCkkikceaeeeckc#kolu..........",
"...........vkkdiqdqddkekiddiqbu..........",
"...........pCkikqkkcdddckedasvu..........",
"...........ldkckekicydkckiacbvu..........",
"...........mkdcieykykdyacdecbvut.........",
"...........ohhkicyscdckedecdrvuu.........",
"...........qlickseicckricccdbvut.........",
"...........masiishsdimid#hckbvuu.........",
"..........tmdqiisidkyicjdckimvut.........",
"..........uikiikisddyy#keckCbvvu.........",
"..........priCdhsrhdchkseecimupt.........",
"..........plmkdmmlkhCCkrdedmbwvu.........",
"........Dupoolffffnnoooonlooouwuu........",
"........biej#agj#ag#aqikqeajeEAFF........",
"........vonpfflfffnonlnnfffffuuvu........",
"........nrmlkdimrksrrickisidbfoffo.......",
".......pmkcieeeamdcekeeaa#aaqdmfmmn......",
"......pomrccesadiceacaaaijaeeacmfbiv.....",
".....orsbdycyakimmkeeaaaje##aeckmfrCu....",
"...vvfCCCiiiChkhhhdkhCCCkkccdddkmzElAvu..",
"...pooAAoAoonBBfEfBBABBAAoBBoAnBBnuuuuu..",
"...wwwuuuvvpppooooppvvvpponflffnptttt....",
".....vonvnmCikkiCbnrimmlscmlmdkspuuww....",
".....pfromimBAAAFFFFFFFFABdrcedffwvvu....",
".....pbrfmiFcqckkdlcdcibkAEsidmmiupwu....",
".....okmbiAqiChCmibkCimfkkAfkckkopuvu....",
".....ommbFmidCCkkmmkCiklmciordkkuvupu....",
".....plbrGkmdoihfhnkomirohnEAecdpouuu....",
".....ormbGcohllhklokoinokckiA#qdbmuuw....",
".....omrEGkCCnihohnknfkofoCiFjqeduuvt....",
".....nCmbGdkkiidkhmCkCCChCCCAaCiowuut....",
".....nmbEGqCfpnClvmbvfpdpfkboHkmnuwut....",
".....nrmbGaCikkkmCimkCCyhCkmFgCbfuwvt....",
".....nimbGqkpvfovbpCvpbnofiCoqCifuuut....",
".....omCbGdCmbmmmzmCkCCCmChioahEftuut....",
".....pmbCGFGGGGGGGGFFFFFFFFGGcrbntutt....",
".....vElbsdecae#qgeajaeq#caq#qimntttGGw..",
"...GEubmbbmirmriiimmmbirrkmmmmffnttGBBAvu",
"..BzBAAAAABBBBBBBAAABBBBBBBBBBBABBECEAGGu",
".zCzzCzzCzzChhhhhCCChhhhhhChhhChCCfAvuutt",
"GAAoEoGoooBzzBBAAACEAAAEzzAChCEBBAAuutttt",
"FBBoBAGBnnnAzoABBzBAAAABzEBBCBBBEAAvutwtt",
"FAAAAnFnBBBBEBEBBBFGGBBBzEBBzFoAEoAvutwtt",
"AAAABoFEEABABAnEBAFBEABBEBBAEBBEBBGGAtwtt",
"AAAoBoAoAAABBBAABFEBABBBEBBAEBABAAGEFuItu",
"AoooAoAoBoFEBABABBBAAAAAEAFoEoFAAoEAuuuuu",
"FoApppAooGEABBAAAAAAAAAAABFAoAoooAFuuuwt.",
"GGGGGGGGGAGGGGGuuuuuGGvGvvvuvvvvGvGut...."};
