/* XPM */
static char *dummy[]={
"52 73 24 1",
". c None",
"o c #080808",
"# c #0c0c0c",
"h c #141414",
"a c #1c1c1c",
"g c #202020",
"m c #242424",
"i c #282828",
"l c #2c2c2c",
"c c #303030",
"b c #343434",
"t c #383838",
"d c #3c3c3c",
"f c #404040",
"e c #444444",
"s c #484848",
"k c #4c4c4c",
"j c #505050",
"n c #545454",
"r c #5c5c5c",
"p c #606060",
"u c #686868",
"q c #707070",
"v c #787878",
"..................#abcdbeefbcgh.....................",
"................hidejekeejekeeblgh..................",
"...............lekekjjjekedekeemaidh................",
".............#dkjndbiilcciimibeljkcaah..............",
"............obekedccbbdfddfblmijekdlggh.............",
"............bfjjdlfbdkeekeebkildkkebigia............",
"...........mkjfdickdkpqepeebeelefkjflmgm............",
"...........fkkdiidkfpkjrebedeebekenebiiih...........",
"..........anjelblekeqnnnelddkebefjerfiigm...........",
"..........ijedcdceeepprnsidfeeteknendigii#..........",
"..........bkjcfbceeeqkjpklteeetkernframgih..........",
"..........fnnmedteesusrurbcdeeteeperfhgaga..........",
"..........fneajfferunnpppnflbfejerjnnihah#..........",
"...#aammmgeksikekunrrrrrprpnecekenerkdlmmgggmah#....",
"ocpfrnrjjkeefleeurprnrnppppprklejdeejeejkjnfeebligh.",
"arernjnjjkefmterjprfbrrpridrppscjecefnjfjffrneebccah",
"ireahaiiiiictenknrblfkrrricenprebeecliciiimidrebilga",
"bkemigldebfenkujndcferrnrcedenrjcdeebecliefbnnefigmg",
"lnjibieenprppnprncfejrrnrjbbferrekjnkftfiefsfjndiama",
"lejmdckepjnrprpprnrppnrnnrpnjrrrnrrjbffelefffnjbigma",
"bejmeteerjpprprrpprnpprrnrrppprrprrjlfeecefnfnjbaaaa",
"lejikfeejjrrrrnrnjjnprprrrnnnjpprrrnbfeebeekfnnbhhaa",
"ljkmeeeedlllbenreimijrrrrjictknjebcdceeeteeudrncghgh",
"injidseeedebccnjjbebijrrnibdeenklbekeeeefeepkkfchgha",
"lrnlbenrrrneeddkkjlfbkrrnlfsrejbgeerurvpurkekkbia#ah",
"grnneknnkkekbebennjtckrjrepetdfgiepnnnnnnnreeflahhoo",
"gfnnrrrnjjeeelebknnjkkrnrnjrciilbpnnnnnkfffbliaoooo.",
"aaaaggiilbjneiekbenjknrrnnnnditldnnkfi#h##ooooooo...",
".........hdnemekbctejnrrkjetibecfnnrfihh##..........",
".........akjegeebefcfnrrkfccleebennreihh##..........",
".........annegeebeedlnrrjijebeebfnnreihah#..........",
".........grffmeedeedcnjrrmketeebfnnrelhha#..........",
".........grpfleefeedbjcpnieeteedfnnrelhaa#..........",
".........ieuecfefeedbnqrnmeftefdennnkihah#..........",
".........gpujfbkeeeebrrnnieedefdenrreihaaa..........",
".........ireekceeefebrrjnieedeedfnneeigaaa..........",
".........afpebkdekfecrjrelfedekdennjfighig..........",
".........greegekeeffbrnnibfffeedenejfhacaa..........",
".........iknfgekfffebrnnrffffefdennnitbaaa..........",
".........grregfeefeetnnnjifffeefenndsfiaag..........",
".........arnegfeeeeetknnfmffeeeffjjetihgag..........",
".........innfmddeeeefimiicfdeeeffkjkeighaa..........",
".........inpdiddeekeebfblfffefdefnekflahga..........",
".........gerfiedddeeebfecfdfffdedjekelhhhh..........",
".........ipnfiffedefedeecdfeffdednekfihhgh..........",
".........inefifeigemefeiimeiiiddfnkkfihhgh..........",
".........gjpdiffegifieiibiedidiifrjffghhhh..........",
".........gpelbbffgeieleibieieieeenjjfmhhhh..........",
".........gjillibffeeeffeiffdfeeeepejfmhhah..........",
".........aflbclkfgtmdimltimdimbfenejdihhah..........",
".........hlfbfkfdeefffdeeedffdddernndihhh#..........",
".........#cjeifdfaambgdmiifamilfenjefmhhh#..........",
".........herdieffddbfeeeeededfdfenjdfg#hh#..........",
".........anpelfdddccbbefefdedfffenfjdg#h#o..........",
".........lenebbfekjnnrrnnnnnjnnnnkffdgo##o..........",
".......alnkefdffbdfffeeffdefffffdefebgmifdfba.......",
"......messkkkjjfnnjjjkkkjbnnnnrrrrrrnkkkbigah.......",
"......idffffffbtfffffffftkffdbtdfdldddblhhhhh.......",
"..aaicbdfffffffbffffffffeffffdtbcbefddimaaaiikeflh..",
"..ibekjnnrrrrnnnnjjjedlbeejekejejkesestcitfjedghh#..",
"..ibbddbeedcbdlecfbfffdlcjfbbtdeeeeetefeeeflaaahh#..",
"..idbddtffftffcdbfbfeeedjffdctffffdddtdbbblahhhaah..",
"..iddbftffftfdddtftfdlfebfddcbdffffddbddbdmahhhgh#..",
"..gbfdftffddffddtfdtfdddbdddbfdfddbddbddddbhahhaa#..",
"..gmfddbbeeffftdtdfcfdddcddftffmlefffbddbdihhahhgh..",
"..aibffbbfddfdefbddbfdddcfffdfiiljffdbbddbaaaahha#..",
"..abefffbfffbcjfbffffdddtfeefecljefdttdfblaggaaag#..",
"..efbfddtfffenffcfffdcddtfffddekedbdtedbdiilaaaaa#..",
"..cbddddtfffffffbffiisfdcdddfffffltdedfcdfbagaaahh..",
"..ibfdfffddddfffdfffedfdcdddddddksdddllfdbiagiahh#..",
"..mlbffffdddbbdffffdfdditfbbddddddddddddbbiaamaa#...",
"..#hhaaggiillllccbbbdiigdbllbdbbbbbbddfiigaaaoo.....",
"....................o#hmlimaggaaaggmiilmgaaho......."};
