/* XPM */
static char *dummy[]={
"57 88 58 1",
". c None",
"Z c #000000",
"e c #080808",
"Q c #0c0c0c",
"M c #0c100c",
"P c #101810",
"U c #141414",
"W c #141c14",
"q c #180c08",
"X c #182018",
"z c #1c140c",
"O c #1c1c1c",
"g c #201814",
"R c #202020",
"Y c #20281c",
"y c #241c0c",
"2 c #242424",
"h c #28201c",
"3 c #282828",
"J c #2c2010",
"1 c #2c2c2c",
"j c #302410",
"i c #302420",
"c c #342810",
"s c #342c28",
"V c #384410",
"f c #3c2810",
"m c #3c342c",
"# c #402c14",
"b c #443014",
"l c #443834",
"D c #444c18",
"r c #485020",
"p c #4c3418",
"k c #4c4038",
"N c #4c6448",
"d c #503818",
"0 c #505424",
"C c #50684c",
"a c #543c18",
"n c #544840",
"G c #545828",
"t c #585c30",
"I c #5c401c",
"w c #5c4c48",
"o c #604420",
"v c #64544c",
"H c #684c28",
"E c #6c5c54",
"A c #705030",
"F c #706058",
"T c #707070",
"u c #745838",
"L c #786860",
"x c #7c5c40",
"B c #806448",
"S c #807064",
"K c #88746c",
"...........................#ab...cdc..eeefd#.............",
"...............ghhihhiihhjgkkilm#aflkmnnfophpihiq........",
"...........giieilmmmllrmfsmmknltpbnuvwvlbxbmmmhsy........",
"...........hllimlmmrlukkzhhi#lwAwkkBnCnrfA#lDsoiy........",
"...........ilrpErnlrmlkEnFihilktnlAnvkabdopDmallff.......",
"..........emlnlnlmlpskonhslaisGknnHnbo#oA#kllmscdg.......",
".........fglntvnkrmllnonnlommisnHnnvFIAa#wkrlfcdfhq......",
"..........ivwknwvlmonAnnnnllominvnnownA#rwmm#AfIhgi......",
"..........ggdnfnfnrnFwnnnElrslmuFEliihfoklffaHIIJih......",
"..........mhpocckrkAvmsiktFmlkiFKwssli#AffAHo#paqhce.....",
".........glnmgduxuHiillllhwvkwvLLslnAmkddb#oJlj#pqhe.....",
".........qmllshAhiilmmkrvlsFnwuvhsrnvvvnndaHgkJcahiq.....",
".........emlklcdhimlDmDlnnnvtnGsmkvnEknkd#Hdmmrfos#j.....",
"..........msucbA#lmmollklBnuvwomlslkFkwnpAbmlroaajyb.....",
"..........mJbauAIrlrmlllHklxvtnwHAAo#nvwbApklAllhbdy.....",
".........JcbIopbdrlllAlrlluhimihihhouIbdHuAnlulrhbph.....",
".........fpHapisEBnwukwllAbkukwkllsdxxuuxoukknkksgag.....",
".........MIpminkiuvnrkllAdhkkrwlnnmIHpdddIulvrknigby.....",
".........gbsinnvshlwaaoHHaakBkkkxrdAoavlh#Aimlns##gh.....",
".........IflnvvvlshtKEIhhvFxnvEvrlaxpvnlri#IoslhgJgh.....",
".........ffHdmlkNklihwhlkkmihihsAIAxdlvkmlsboIHIgOgg.....",
"........MnhhobmDnkushninBvkkllmhtdHxHflllrpudfgfoygJ.....",
"........hnumhfdlkkkmivmAnBklrmiwtA#IxHppa#HI#gggfp#g.....",
"........mknkshHsrkxlmEkknnrmiFwtkcchIxxxxuxbghsggoopf....",
"........lkrmlhIikwklsEvlkxlshEntJhmihb#ppIA#gmlsgfgqIf...",
".......MlkskkiomlkkkivnvllmntkkaiiknmigggdHfhklDhqJgqp...",
".......hlrkulhAskklmhnmwwmiknaLilkxnklmihpufgknnlyggPf...",
"......Mlrlknkio#wlmigihmmihsmimmi#milmmmg#xfgillliJgg....",
"......ggggggeJddhgeeghimmmkmhgggeeeeeeeggbugggghisigg....",
".....ggiihhgggQggeQgmrlskwwviiggeeeeeehORdAdjggggiicg....",
".....hlnnrnnlmihgggtvlshFskSllsgegghslnnlmgpAaggghhgg....",
".....hskknwulnloggivvEFwEumTmnsgghhimlwEvlihbaopjggjg....",
".....hhnrnovnnDmggmvvtEFwlnslkiggghhilwvwkmhgf#a#gggh....",
".....gghllnwnklshgsvtvknEtFsmlhggghii#lllmiigggqHgggje...",
"......gghimlisDhghmuwwkBntLmJlJgh#hhMyiihhihhghiijggUe...",
".......yhjgggghgghrlntwnkmEommJghklhgyhJhhggghilsigggq...",
".......gmsjghhhhgilnHnvwriEklmjgmnwlhhggggghsllmhggggq...",
".......hloimllmigltHnlwwtlsvhfggilnwksnliiillnmhmgghig...",
".......isDlkknukhkuwnwtwSnlniiggimlnwllnvEvwnmhshghgig...",
".......imkkknnnninFwwEwnLvATnhghhlmwnnwwwnkllisihgghggq..",
"......gsrllrkkkkikFnwhmDlshnIbfchhissslllmscwkggghgggg...",
"......hllpllnlkrsghimlvHlklcaHAIIHIoIdfhghhdLghgghyggg...",
"......mlrmlkHlkHiimlkAnrlkssfggghhhhhgoIHodknmhhhhhggg...",
".....qllolnrllrmHmnnrkllllllhghslnlshgcf#fjLLHhhmqggPg...",
".....hlmsnklnnlkhkkrlmlklDmishixlwkmiI#ghhicBlmilchgPg...",
".....imhkllnnnkrhnlllkAmVsiolJmAmlihHI#hsmuwclmlk#ggPg...",
".....migrmHkkrklgkmlrkklllllmgmlmlhI###hlrlukfdknhgPWg...",
".....lnghlkknnllgklulllmlskm#PhhsrI#hgI#kDmkrsconhgPWg...",
".....lAwgsrmknmsgknlmlalslkm#hhhsI#hmmI#kkmmmsJanhggXg...",
"....gkrlwrlklhskhnklrllmslkDimklIIsslkIvklpsdihsvggPXg...",
"....hrmlBkkwisllslnlDmlolnlllllII#shonIvkiiishhinhgYYy...",
"....hahhmsghslnvlklnnnnklnErlmlmslsgZgI#mhslamgghgqqqqe..",
"....gmlggggghhiskllkkknnnvvlsikmoshZeegIIsgslkmhgPXXgqq..",
"....gHlkhghiggyXmmkllkkmisigghgIhhgggeighhggmpnmiPPggJP..",
"....mssllinkDhggJggygXjXyyyqgghIgggigggimhsqgmkwlegggye..",
"...eiliskmlmmsihggggPgqMqgMqgggIhhhssgMhmlnsehkv0ggggeq..",
"...eishgimlllonnmjUhsjhsmmlslc#I#lssssegilnkighmumgggeh..",
"...gsshhlmnkrllkrmllDmlnmkurm#I##lIlllheOilkkhgmknsgggh..",
"...gmhhinkuilIkllkknllnklnnIIIIpuvkllkhUgeslkhhhbvmgggh..",
"...gmhhmunvhhllmlAlHmlcbdHAdp#IdlnnnihihgehimlhsinHJggg..",
"...gmghrmllwimmuwklllIIdfnnwkbIpnknllsihhMqhmkc#gJo#jhJ..",
"...hmhlnkmnrEknlihgghIJsmrlnncdcnllhjhnsUMMehfIfghjja##y.",
"...imgimkrknlshgggggJIghhisc#dbJnlmmihhheMeef#IgsgJjcaafy",
"...ilghgsmlshhhhmllJbIJishhjIaj#hgjimeggeeeepdfhlhgggjjJq",
"...ilggiihhhgiimkllpIjrhhikJpIoMgggggheeeeMjJcafksggggiq.",
"...smgggigismaiinlkaHmanmmkmggpIqghqggeeZeghjqcIplhggJge.",
"..emmggggillllkknnkHpnnnslkssmgpHegJgZhggghgMqqjInsggyge.",
"..qlmiggmmmkkkkmolnofkxkmrmmmshZbHfggZgggshhgeMqJfjgghhq.",
"..gmmfhhhlllkkbllllbakllsimlmiseZHfgZggibmhhghgMMoaJqgjg.",
"..gmlhgghilllmmlsmicIcsssmisihhgZHfhggcsisshihggMcfIjJgeJ",
"..gskmlhhlissspihgggcbIjsihhhhgZZAfhipsi#midlmhgg1RfIcqc.",
".I#jbslnhgghhhgggghhggggba#ggZgZgfIgggchhnlkknhggml2paee.",
"fbIAolnkggghhhhghhhhhihgdIAoHJghhyHggheZsllvnhgghlljHfeee",
"jgjfjcrmshghghsspismlklfo#gh#HbggJAhi#mmmlwklshidmjIaeeeZ",
".ilmhalmksihgghimllkknnbIcgghfo#J#Imslmvlnwnkl#gjj#oJeege",
"gsloiolklllshggghhhhibdIcggsgh#AfIlldhrklwvnkipdIIHpqeeee",
"hilDndrlnrmlkniihhhhidAphiknlmcaHfll#OsmkmfmhfpagggIbggge",
"yhpmnfHlrlmkrmlhhcjfpx#smknlkcdfIbmsyeibsypIIIbfgbdIohgqe",
"eghslJlmmlllhlml#IxAupkmmlrljpyqfIf#gZefbdbylllayggghIhyq",
".hgsmbshhimlllkhIuodkkmsmmsOOjfpqfIof#IIaqJhhyhhaggJghpJM",
".hgigqphXhhRiil#uannnksm32ReeeybagqjIoIJqeeehhgfIeiyggIjg",
".eghjUeqdIfIIAuAoiiiiiiOOOyicheey#IhpyZJIhhhihgi#Iqhyggcd",
"..ghhhUeqIIjJyyqIjhchhOOOOMPhhheeqfa#qggiIIIfsi#IJayqgggc",
"..qggqMecIJeeeegIqsshjgUeMeMqhiieeJIfgghimlfIffIJeJaqqgge",
"...eggMjIJeeMgMeIghrml#OUMeMgUjheejIJihhhhshbIIcqeyjpqge.",
".....egIfZZegMgMfIgehmyhhUUMgyggMjI#JXqeZZeZ#I#qMqeyjfy..",
".......IJeZZeeeegbIeeeMMUyOegeMMMIceegheeeeqfpqMqeee.....",
"................................eegeeqgqeqeee............"};
