/* XPM */
static char *dummy[]={
"63 77 34 1",
". c None",
"w c #000000",
"d c #080808",
"# c #0c0c0c",
"f c #141414",
"E c #142410",
"B c #180c08",
"e c #1c140c",
"x c #1c1c1c",
"C c #1c3010",
"a c #201814",
"t c #202020",
"u c #242424",
"F c #243410",
"b c #28201c",
"s c #282828",
"v c #2c2c2c",
"D c #302410",
"c c #302420",
"q c #303030",
"i c #342c28",
"r c #383838",
"h c #3c342c",
"g c #443834",
"m c #4c4038",
"j c #544840",
"k c #5c4c48",
"l c #64544c",
"o c #6c5c54",
"n c #706058",
"p c #786860",
"y c #807064",
"z c #88746c",
"A c #907c70",
"...........##abcdbcceefffbbbcgghiiihgghhibaaaabcihibcchgjicb...",
".........abchbhgjjkjhfaccblmjcmigcgkjmjjkbbbaimjjjmhjjjjjmgia..",
".......aaaimjcjjjljgckhhmimgcgiicjmjmmmmiaaacahjjjlgklnloljga..",
"......aaachhjimjkjjgkjgjligocmmcgmmmjjjgbhbbjhcjjkkgkloologib..",
".....aaabgihmgimjjhjjmmonhhmjhgbjmaljjjcbglikgliokkmloplogigia.",
"....faaaaiihghcghchjmgmpojhgjlcajjojijmhclkhjmlkpkgmklpkjklkcb.",
"...aaabaabihhhighgmmgjjlpmgmjknjjjjmcbkmjjjgjjkkklggkoolklnjhi.",
"..ababiaaaiiihhigggmmmjkkmgjkkoojmjjkojjjjkmljklllgjlnomlplmkhf",
"..aaafiabaaihhichjjljmjolggjjkolojkkjmjkklkjlmkklljlolkjlplolmc",
"..aabbiababbhhigjjjpnjhkmmjjjjkkkkjjmjlkkjkjjmjjjkjlnljjlookjhc",
"...abaiaaacbcciijjjknjmhgmjjjjokmmjjmjjlkjmkmggmmjjkllkkoljghca",
"...aaabcabccaffeebciihhgmjjjmjpommmmapjpkjjmmghmmjkolkmiaaaa...",
"..#aaaaiabiicbaaeefaaaabcihmmjjnmmjmjkkokmgmjmhgmgqrqstbaaaa...",
"..#aacbiabighhiaaicbaaeeeeaatubsvqqqqvvvstfaaaaaaaabbbccihca...",
"..#aabbabbihmmibiihghihicbaaeeff######ff###dddabicmmgkmhhllc...",
"..#aabbbbbhgmihhhhggghmmhhcaaeeeefffffddddd#dacgmhklmlokgkji...",
"..##acbbbbhjjjmggmjmmimghiicaeabavutfbibb#dwxcgjjgjkjjlkjjmh...",
"..bfacbbbigjjmicaaaaaaaaaaaaaaabciiihbbhi#bdwaaaaaaaacgjpjmg...",
"..afxcibcbimjghhhbcbaaaaaaaaaaabigmjojkknljhwdaaaaacgjnpmjjm...",
"aaaaaiicchgmmihghchhchiaaaaaaabchjlpyonlkopkcwdacigjnnhjjjjma..",
"afaaaticigmmgcgghchhiciicbcchgchmkkonppnllnpmaebiiihmjgjjjlji..",
"afabibiiimhmjmgcibiiiihhiiiiciihjljklllllkklkbghiijjjlmjjjmmc..",
"ffbbcabiighgggghicghhhmmghciiihhjkjmjjhhmjggmiojmhmjlnlllkgmb..",
"fffbhibihhihiihihigmmkklkmhiihggjkljjgiimljhmgijmhiilylynhgge..",
"fffabbiihibigggjhjjjjkmonmmhiighjllkghijjjpyolhiihbcjolllkljg..",
"##ffabcihhciihhjijjjklljmiciihhmjnojkllpznyplyplmmbikolllkkii..",
"##af#aihihhiiihigmllklkgiciihhjmjkmlpyppypollzAppjjljklkljccg..",
"#acaffbgmmmhcbchjjlkjjjhbbiimhmhmjjnnlnlllkjkopljcgolkklohlnf..",
"#faaa#abgmmmhhjmkkkjjjhcabciiiicihgjloonljghgmjigccgloolojmg#..",
"#faabaaabfhgjjkmhjjjjgcaibaciaaaabihjklkmgiaaccihmcimkkmjmgg#..",
"#fbabbaabihklloolhhmgiabihcaaaaaabbbigmgicbaciigolhjihmmmmigd..",
"##bacbaaabgklolgmhhgibcchhhhbicbaeeaaabeeaabibgoylgjhcijggbg...",
"##fbabbaabihmjhhiihiciiighghchicccaaeaaeabciiclooomkjicigbch...",
".#ffaccbbbiigjmiciiaihhhgggihmhgcicbeaaaaacccgkkkjhjjgicgaih...",
".affaacbbiigmmmccbachgmgjjmjmmmmggibcaaaacbachmmggcgghcchbgh...",
".#affaccccihghibbaaabchgmjjjjjjjjmhibabaaaabbcmmmgiggiiiggmh...",
"..aabffcbichhiiabaacchgjjjkkjkjjkkkmgibbbchghmmmghimgibammmh...",
"..aabaffaiciihibaacchmkllllllllllklljkjjjjjjgjjjjmgmgiaamhmi...",
"..aaibaffcchhhicaccggggggggghhhggmmgmmmhhhhgigjggggiiiachhmi...",
"..aaabcafccihmghccgcccaaaaaaaaaaaaaaaabaaaaabbabiiigicachhji...",
"..aaabafficimjjmiiicaaaaaaaccaaaaaaaaaaaaaaaaaaaaaaiiaaihhjc...",
"..#abcafficimjjjgamhcabaaiaacaaccchicaabiibbchicaaaibaahhgja...",
"..eabccffbichmgljigkmhbbaaacihcccbbbbbbbccicihicbabbiabhhgmf...",
"..ebaaaffbibbiillmcmkojgibbbbbbchmjkkkkkmghcabbbbchgiachmmmd...",
"..faaabafbiccibgkkgagkolkjghhmjloooonooklllljmghgkkjbagijjg....",
"..daaaibffaiihbimjlhagjoooooooookmknnlljmjllllllkkjiaccmmmh....",
"...aaacbbfaihhhchgjlichgklllkjgihmnllnlljcihmjkjmhcaccjmmji....",
"...aaaabbfaihghhcahmmcbigjjmhibgjkjgmjnnlmbciiicaaacagjjkji....",
"...Baaaacaaaihgicbigkjcbbbabimjlmhcbihmknlmbbbaaabcimmmoojf....",
"...Baaaaaaaaiigiihciaigibaigjkmiabcibchgmklmhbicabihhhgkjc#....",
"...BaaCaaaaaabchihimmgiccamkgibaaabighciihmllkhihhibihiihi.....",
"...#a#dabaaaaaiiiimmgmjuaaaicbbahDbbmghbcbcihihhkiaiihihhc.....",
"...da#EFaaaaaBbibmjhimtibihcaaabhhbcbhibbibaccgjjbiihiiicb.....",
"....adddabaaaaabbhmfaxihbhjiaccamjcacihaiiicihjjjciihihbmc.....",
"....Bdf#daaaaabicchhhbhhihghbiibgjhcihiciiciihmjmbijhiblmB.....",
"....Bdffddaaacciicigabhhihhhcgiigjmigmhbiichgolmhaiichmmgc.....",
"....ddffdddabccifcigachichmhihchjjcmhihiihihjmmhiacccbmmh......",
"....d#ffad#aabfciiihiiicicjihijhkjiiiihihiiimjmiaimccjmaa......",
".....#fdaaaaabcxaiiaiiiaamgihbmhjjgjihhgccbmmibaammjjabca......",
".....Bfdaaaaaaacaaaaiihhjgiihaihmmjhighgicciaciajhjabimhd......",
".....ffddaacabaaicbbbihihibbcibhmkjjhjjjgiccbajjmcbchbiia......",
".....dff#aieaaaaaicbbchhiabcmichjkjmjjkibaccagmaaachbcba.......",
"......bf#aabbababbxxxcihaccgiihgmjmmmmiaaccaigbaabgicmma.......",
"......effdabaaaacbbixihhhicmmcgmmmjjjibhbbammmmaighijmgd.......",
"......#aff#abaafficixbijihchgcjmimjjjcbgccbammmaciommmh........",
".......aaffaicacafiiiiihjhchcgjjbjijmmcihchiaihjmmmmmaa........",
".......aabffafidiihhfxfchjlbhjjjjmahmmachihibbhgmmmmacB........",
".......daabdfabcfifxbcxxfimmjljmjjcmjjaiiciicmhmmmgmmi.........",
"........aaaddfacicixcccbxfjjmjkjkkjmjhbiiciiicmmcbmmji.........",
"........aaabcbfdaibfbbbbbkljajjjjjmjjchicbhibajjgaijja.........",
"........#aaaaadffaaaxbchxjmabmmcljmmgiiacbiccbommbcjm..........",
".........adbadacfffaaihmjaabiikkhiaaciaabihjljbjmbhmi..........",
".........fadcbawwffabcchaaiiibjjgjcabccibhjckokbigmmaB.........",
".........dadabwwwwa#accabcihiammmmjbabbccmiimjaajjig.B.........",
"..........eaaawdddd##aiabigibcbmgjjmagccciiaimkcabmiB..........",
"............dwwadddd###aachhagjchjcmcaaimiaicmgiahcf...........",
".................dfaaaaaaabhgcmmcbmgmaibaafd..................."};
