/* XPM */
static char *dummy[]={
"57 86 65 2",
"Qt c None",
".Q c #000000",
".# c #080808",
".q c #0c0c0c",
".a c #0c100c",
".8 c #101810",
".U c #141414",
".5 c #141c14",
".r c #180c08",
".O c #1c140c",
".V c #1c1c1c",
".7 c #1c241c",
".4 c #201008",
".h c #201814",
".X c #202020",
".2 c #20281c",
".G c #241c0c",
".S c #242424",
".9 c #281408",
".b c #28201c",
"#. c #282828",
".Z c #283810",
".F c #2c2010",
".6 c #2c2c2c",
".Y c #2c3c0c",
".K c #302410",
".c c #302420",
".T c #342810",
".g c #342c28",
".3 c #34400c",
".d c #383838",
".0 c #384410",
".R c #3c2810",
".f c #3c342c",
".1 c #3c4810",
".E c #402c14",
".W c #404c14",
".H c #443014",
".e c #443834",
".D c #485020",
".s c #4c3418",
".i c #4c4038",
".B c #503818",
".t c #505424",
".z c #543c18",
".n c #544840",
".A c #545828",
".N c #585858",
".o c #585c30",
".x c #5c401c",
".j c #5c4c48",
".w c #604420",
".k c #64544c",
".C c #684c28",
".u c #6c5c54",
".p c #705030",
".l c #706058",
".J c #745838",
".y c #786860",
".v c #7c5c40",
".L c #806448",
".m c #807064",
".I c #88746c",
".P c #907054",
".M c #907c70",
"QtQtQtQtQtQtQtQtQtQtQtQt.#.a.b.c.d.e.f.g.b.b.b.h.h.h.a.#QtQtQtQtQtQtQtQtQtQtQtQtQtQtQtQtQtQtQtQtQtQtQtQtQtQtQtQtQt",
"QtQtQtQtQtQtQtQtQt.#.f.i.j.j.k.l.k.m.n.o.j.n.p.k.k.p.n.i.e.n.i.e.f.i.e.e.f.n.i.e.f.g.c.qQtQtQtQtQtQtQtQtQtQtQtQtQt",
"QtQtQtQtQtQtQtQt.r.h.s.t.n.k.o.k.j.i.u.i.o.n.v.u.j.p.n.o.i.k.i.i.s.k.i.o.j.i.i.n.i.i.u.k.j.gQtQtQtQtQtQtQtQtQtQtQt",
"QtQtQtQtQtQtQt.#.g.g.f.e.o.k.n.p.n.i.j.i.n.n.o.k.j.n.w.n.n.k.k.k.g.l.i.p.n.n.o.i.l.n.n.n.n.eQtQtQtQtQtQtQtQtQtQtQt",
"QtQtQtQtQtQtQt.c.s.f.s.n.u.u.m.j.x.i.y.z.A.j.n.p.n.j.n.B.n.n.k.n.f.i.i.w.i.n.n.n.j.t.k.u.n.iQtQtQtQtQtQtQtQtQtQtQt",
"QtQtQtQtQtQt.#.c.f.f.e.k.l.l.n.n.l.n.j.u.n.o.n.C.i.o.j.e.t.i.i.o.e.i.n.n.i.o.k.n.e.f.D.i.k.n.bQtQtQtQtQtQtQtQtQtQt",
"QtQtQtQtQt.#.a.E.g.D.i.l.u.l.m.y.m.l.u.n.i.j.i.i.n.u.k.e.w.i.j.u.l.n.w.n.u.u.e.s.f.g.F.t.n.u.cQtQtQtQtQtQtQtQtQtQt",
"QtQtQtQtQt.G.e.i.H.e.e.o.j.u.I.u.k.l.n.z.i.o.n.j.i.k.i.g.n.j.n.i.o.n.i.o.k.o.i.i.c.h.j.n.j.n.fQtQtQtQtQtQtQtQtQtQt",
"QtQtQtQtQt.b.e.e.s.e.e.k.n.m.o.k.l.m.u.i.i.n.s.i.f.u.E.a.y.k.w.i.n.x.i.i.n.C.i.g.#.h.J.n.A.j.i.#QtQtQtQtQtQtQtQtQt",
"QtQtQtQtQt.c.i.i.i.f.t.n.j.j.o.I.j.m.m.n.j.u.n.t.e.k.p.o.j.n.j.i.i.i.k.n.n.i.F.#.#.F.n.j.w.i.n.hQtQtQtQtQtQtQtQtQt",
"QtQtQtQtQt.c.i.w.n.f.f.w.k.u.J.u.o.k.I.y.n.w.n.n.o.k.j.n.p.n.J.n.w.n.k.n.i.k.i.h.f.o.k.j.k.n.f.hQtQtQtQtQtQtQtQtQt",
"QtQtQtQtQt.g.G.n.i.e.e.o.k.j.u.J.k.J.n.I.l.j.J.k.v.j.o.i.o.n.k.k.n.A.k.i.t.n.n.k.j.k.o.u.k.e.c.hQtQtQtQtQtQtQtQtQt",
"QtQtQtQtQt.g.K.i.s.c.f.o.k.J.k.v.u.v.k.l.k.u.m.L.k.n.i.n.j.J.n.C.j.w.n.i.w.n.k.C.k.j.k.n.A.g.f.bQtQtQtQtQtQtQtQtQt",
"QtQtQtQtQt.e.g.i.i.h.H.j.l.o.L.l.u.j.o.n.n.o.y.M.k.p.n.o.n.v.j.n.j.k.u.n.n.n.n.n.l.L.u.k.k.n.g.aQtQtQtQtQtQtQtQtQt",
"QtQtQtQtQt.f.G.i.i.f.t.y.M.y.m.o.v.e.e.n.e.t.k.L.m.k.n.o.N.v.j.t.i.v.i.f.o.j.n.o.k.k.v.k.L.u.g.b.cQtQtQtQtQtQtQtQt",
"QtQtQtQtQt.c.#.F.e.e.o.m.l.u.m.k.k.e.e.j.f.f.f.n.L.l.k.J.k.y.j.j.j.k.i.e.o.l.l.y.L.k.l.y.J.j.e.h.cQtQtQtQtQtQtQtQt",
"QtQtQtQtQt.f.#.O.c.g.n.v.m.m.m.k.n.n.b.b.b.F.#.#.k.y.k.k.L.k.o.j.o.e.f.i.i.l.k.y.L.l.o.n.i.o.i.g.cQtQtQtQtQtQtQtQt",
"QtQtQtQt.#.f.O.f.g.f.k.u.M.l.y.u.j.b.e.e.c.f.#.i.A.L.k.k.k.L.k.n.p.k.i.J.u.o.k.o.u.u.L.j.n.k.j.g.cQtQtQtQtQtQtQtQt",
"QtQtQtQt.O.e.e.e.c.g.n.n.M.y.y.k.j.i.b.b.n.n.n.n.i.k.o.k.u.k.v.j.J.k.j.o.k.k.n.o.k.l.m.P.n.o.k.g.cQtQtQtQtQtQtQtQt",
"QtQtQtQt.r.f.H.f.b.q.f.n.k.u.o.k.n.c.c.n.j.J.k.o.n.n.o.j.o.j.o.u.y.L.j.n.p.j.n.j.o.L.m.y.y.J.u.eQtQtQtQtQtQtQtQtQt",
"QtQtQtQt.O.f.E.f.h.q.c.f.f.i.i.j.f.c.e.i.n.j.j.k.j.n.i.e.n.j.k.o.y.L.y.j.n.o.k.j.k.k.L.y.y.L.k.jQtQtQtQtQtQtQtQtQt",
"QtQtQtQt.h.e.g.E.h.h.Q.#.h.h.h.g.e.n.j.y.y.y.y.y.m.y.l.u.j.o.j.J.u.L.o.k.n.j.o.u.l.j.o.k.k.y.J.k.hQtQtQtQtQtQtQtQt",
"QtQtQtQt.F.f.i.f.f.h.h.h.b.f.e.u.u.y.y.y.y.y.y.y.y.y.y.u.u.j.k.t.k.l.u.o.k.j.v.k.y.k.k.o.k.k.k.k.gQtQtQtQtQtQtQtQt",
"QtQtQtQt.F.e.i.s.f.g.c.c.c.e.u.n.y.y.y.y.y.y.y.y.y.y.j.i.u.u.u.e.k.p.n.n.o.k.k.o.u.k.j.o.k.l.k.j.nQtQtQtQtQtQtQtQt",
"QtQtQtQt.K.e.e.n.s.i.i.i.i.u.y.l.C.k.k.B.f.B.n.j.p.n.i.i.f.l.u.l.i.o.j.n.y.o.k.k.k.n.j.o.k.k.J.n.uQtQtQtQtQtQtQtQt",
"QtQtQtQt.b.E.f.e.H.n.u.k.k.k.o.j.i.k.l.i.i.i.o.i.C.n.C.n.g.g.l.i.i.k.n.j.n.i.o.k.o.k.j.k.o.k.k.k.j.bQtQtQtQtQtQtQt",
"QtQtQtQt.h.g.f.g.E.i.o.j.k.e.H.i.E.c.R.G.F.h.S.c.f.c.c.E.f.g.i.e.e.i.i.e.e.c.T.e.i.D.i.i.t.n.n.o.j.f.aQtQtQtQtQtQt",
"QtQtQtQt.K.i.c.U.T.f.n.j.f.f.c.h.Q.Q.Q.Q.#.#.#.#.q.q.h.h.g.i.n.n.k.i.f.g.g.h.h.h.Q.Q.Q.Q.#.q.q.q.h.g.bQtQtQtQtQtQt",
"QtQtQtQt.E.i.g.g.g.n.n.c.g.h.#.a.#.#.#.#.#.#.#.#.#.#.#.c.k.n.j.J.u.k.j.n.e.f.Q.Q.Q.Q.Q.Q.Q.Q.Q.U.c.f.OQtQtQtQtQtQt",
"QtQtQtQt.f.f.H.e.T.f.g.f.h.#.#.Q.Q.Q.Q.Q.Q.Q.Q.Q.#.#.V.f.n.u.u.o.j.y.l.o.e.k.h.Q.Q.Q.Q.Q.h.b.c.g.f.gQtQtQtQtQtQtQt",
"QtQtQtQt.e.i.f.f.T.g.F.#.q.q.Q.Q.Q.Q.Q.Q.Q.Q.Q.Q.Q.#.c.e.n.l.y.j.o.l.y.n.J.j.c.Q.Q.Q.Q.h.#.h.c.e.e.bQtQtQtQtQtQtQt",
"QtQtQt.#.i.f.T.f.g.c.G.#.h.h.Q.Q.Q.Q.Q.Q.Q.Q.Q.Q.Q.Q.h.E.k.l.k.k.n.k.k.i.k.k.f.h.Q.h.Q.V.h.b.e.f.i.hQtQtQtQtQtQtQt",
"QtQtQt.r.f.f.T.c.h.c.c.F.h.h.Q.Q.Q.Q.Q.Q.Q.Q.Q.Q.Q.#.h.g.i.l.i.J.k.o.l.k.k.t.i.b.g.f.f.g.f.g.c.i.i.hQtQtQtQtQtQtQt",
"QtQtQt.h.f.e.b.h.h.c.h.#.c.c.c.c.c.g.f.f.f.g.c.e.g.Q.Q.c.f.n.y.j.J.j.o.k.u.n.n.G.e.D.f.f.e.o.e.i.i.hQtQtQtQtQtQtQt",
"QtQtQt.O.g.s.h.h.b.b.b.h.b.e.s.n.k.u.k.l.l.k.j.f.h.Q.h.c.f.A.y.k.k.w.n.n.o.k.n.g.j.j.o.j.k.k.t.k.n.VQtQtQtQtQtQtQt",
"QtQtQt.h.f.E.b.b.b.f.i.j.e.i.n.e.W.i.e.e.f.g.c.b.b.h.b.b.g.k.m.k.j.j.x.k.i.o.n.K.e.k.k.u.j.i.i.o.n.XQtQtQtQtQtQtQt",
"QtQtQt.h.g.g.b.b.c.e.n.B.e.s.i.E.i.i.i.f.f.g.g.g.Y.Z.c.h.c.k.m.o.n.i.i.w.n.n.n.o.i.u.J.l.u.C.e.o.i.bQtQtQtQtQtQtQt",
"QtQtQt.F.f.E.b.E.f.s.i.i.g.e.i.e.B.o.j.i.k.W.W.i.t.Y.f.h.h.n.y.n.j.f.e.n.w.n.j.v.k.l.y.l.u.l.w.n.n.bQtQtQtQtQtQtQt",
"QtQtQt.F.c.b.b.T.f.e.B.e.E.i.i.j.j.l.l.k.u.j.j.i.i.0.1.h.h.j.m.o.j.E.i.n.s.e.n.A.u.k.u.k.u.y.l.o.i.gQtQtQtQtQtQtQt",
"QtQtQt.2.c.b.c.f.e.i.i.e.i.j.n.u.j.l.l.i.k.l.k.1.W.3.W.h.h.l.m.n.u.b.F.i.f.g.n.n.u.o.j.k.k.u.y.j.n.n.#QtQtQtQtQtQt",
"QtQtQt.F.c.b.T.f.e.i.B.i.j.u.i.n.l.l.i.y.k.k.k.u.k.0.o.b.c.n.m.n.j.2.r.k.H.c.o.n.n.o.k.u.k.k.l.k.o.i.hQtQtQtQtQtQt",
"QtQtQt.b.b.c.c.f.n.A.i.i.l.n.l.k.u.u.l.k.k.u.u.n.n.0.k.c.b.t.k.i.k.f.g.e.g.s.k.k.j.o.u.u.k.o.l.u.i.j.gQtQtQtQtQtQt",
"QtQtQt.b.b.b.E.f.z.e.t.n.y.u.i.k.u.u.j.j.y.y.u.j.j.0.J.g.h.j.y.j.A.e.E.i.g.f.i.j.u.n.u.k.n.i.i.i.t.j.iQtQtQtQtQtQt",
"QtQt.h.h.b.c.c.g.i.B.i.o.m.k.J.J.k.m.y.j.m.l.j.j.n.1.p.f.b.i.k.y.j.n.o.n.e.r.i.e.j.o.k.j.o.k.j.j.j.n.k.hQtQtQtQtQt",
"QtQtQt.h.b.b.c.c.n.w.i.n.p.k.y.y.L.u.k.j.n.j.n.u.n.W.n.f.c.e.k.j.n.n.n.o.i.f.B.e.k.j.n.n.n.n.C.n.A.k.e.cQtQtQtQtQt",
"QtQtQt.b.b.c.c.c.e.n.i.i.o.j.k.k.y.A.k.L.k.k.k.k.t.W.e.i.b.g.o.i.C.n.i.t.n.n.n.n.C.n.o.j.i.i.n.i.f.A.n.eQtQtQtQtQt",
"QtQt.#.f.g.G.c.c.c.f.i.n.w.o.n.u.k.e.y.i.o.k.k.n.j.W.e.e.g.i.l.u.n.i.i.j.i.o.n.n.k.j.k.o.n.i.n.w.n.i.o.i.OQtQtQtQt",
"QtQt.q.E.b.b.b.b.c.f.f.n.i.n.i.i.w.i.o.i.n.i.j.n.n.e.e.g.h.i.i.j.n.k.w.j.n.i.o.j.k.n.n.F.i.j.n.n.L.k.k.n.fQtQtQtQt",
"QtQt.O.f.b.b.b.b.h.f.g.i.z.k.i.u.e.B.i.n.j.j.n.e.e.f.e.f.b.n.H.n.j.y.n.n.k.n.j.A.i.i.i.F.r.H.j.C.k.l.C.n.i.UQtQtQt",
"QtQt.4.g.s.g.b.c.c.f.g.i.f.e.f.e.i.i.n.j.i.n.i.j.f.g.f.f.c.e.f.A.i.i.n.n.k.m.i.j.n.n.i.i.f.g.n.n.i.i.v.k.i.cQtQtQt",
"QtQt.G.g.f.e.c.g.g.e.h.i.e.i.i.e.i.k.l.i.i.t.i.n.g.g.n.b.g.E.i.w.e.w.j.n.j.n.i.o.n.i.u.l.u.i.o.i.i.j.n.D.i.cQtQtQt",
"QtQt.F.g.E.e.f.f.s.e.f.i.e.f.f.e.f.k.y.n.j.g.g.g.g.e.g.b.h.c.f.n.f.A.i.A.j.i.i.i.A.f.k.k.k.k.j.o.k.k.n.f.o.gQtQtQt",
"QtQt.b.c.b.T.c.f.i.e.H.f.f.f.g.e.e.g.g.g.g.g.g.e.L.o.u.h.h.h.O.F.h.c.c.E.f.e.e.i.b.F.f.n.i.n.k.u.u.n.j.E.n.fQtQtQt",
"QtQt.K.f.c.c.b.E.i.i.i.n.k.g.e.e.h.g.g.g.i.i.u.k.n.J.j.f.h.h.q.#.#.q.#.#.#.#.r.a.a.T.c.E.E.f.k.k.n.u.n.e.C.gQtQtQt",
"QtQt.c.E.f.g.5.K.i.o.i.o.k.e.e.g.g.g.k.j.i.n.n.n.i.t.i.i.n.f.c.h.h.U.h.V.U.q.h.b.g.e.g.g.F.K.i.o.n.i.n.i.j.fQtQtQt",
"QtQt.S.c.E.g.b.R.n.C.n.o.j.e.c.g.j.y.i.B.n.n.k.i.i.s.i.k.n.i.e.f.g.g.f.e.c.g.f.n.e.g.n.n.e.R.i.k.i.o.i.n.B.eQtQtQt",
"QtQt.F.c.c.f.c.f.i.i.n.w.e.c.c.n.o.l.i.i.o.n.j.j.j.n.k.J.l.f.n.t.k.u.j.k.o.i.o.i.T.r.i.j.f.f.e.s.f.B.o.e.e.fQtQtQt",
"QtQt.c.c.O.i.F.e.e.E.e.i.c.c.s.i.i.l.i.n.j.i.t.n.t.k.k.J.i.F.g.D.n.C.n.l.j.u.e.n.n.T.g.o.k.b.g.e.i.n.i.f.s.i.qQtQt",
"QtQt.f.f.g.e.T.e.e.c.s.i.c.g.s.i.i.B.k.j.p.i.i.e.i.t.j.l.k.n.i.o.n.J.j.o.k.J.i.n.n.#.Q.k.j.k.n.s.e.C.n.f.i.i.OQtQt",
"QtQt.f.E.g.f.T.f.f.f.i.g.c.i.E.n.i.e.l.k.n.i.i.E.e.i.k.n.y.l.j.j.j.p.j.n.n.J.i.o.j.O.i.A.k.p.j.i.e.i.i.H.e.e.UQtQt",
"QtQt.e.E.c.g.T.c.c.E.i.g.g.j.c.D.n.j.l.k.C.n.i.i.y.l.l.y.l.k.o.k.y.u.i.i.i.C.n.l.n.C.j.k.k.l.n.o.e.e.i.i.E.i.qQtQt",
"QtQt.b.c.F.f.g.G.g.i.g.g.e.i.e.s.i.t.j.i.k.n.i.g.f.D.i.i.i.s.e.f.f.e.2.h.g.f.i.i.k.k.J.n.i.f.s.n.f.f.e.n.i.i.OQtQt",
"Qt.q.g.c.b.K.g.F.e.i.g.s.j.f.i.m.i.n.A.i.e.A.j.b.R.f.H.f.e.e.f.E.g.T.b.K.e.D.f.f.i.n.i.H.f.f.f.t.f.e.A.n.i.i.bQtQt",
"Qt.a.K.g.g.g.g.b.T.e.e.i.T.f.e.k.i.j.x.i.f.s.X.V.a.h.a.V.U.q.2.q.q.V.b.U.b.b.#.h.b.c.g.T.g.K.i.c.g.k.u.H.e.i.gQtQt",
"Qt.O.c.T.g.T.c.c.E.i.f.i.s.i.n.x.n.i.k.g.f.U.U.#.q.#.#.#.#.Q.q.Q.q.#.#.#.#.#.U.#.#.#.q.U.V.U.b.c.g.g.k.i.k.g.fQtQt",
"Qt.h.g.E.g.f.c.g.f.B.f.i.n.n.i.l.n.i.i.e.X.q.#.i.c.K.g.g.g.g.g.e.S.S.S.g.n.F.5.c.T.#.f.E.f.e.c.g.b.b.n.E.n.f.fQtQt",
"Qt.h.c.g.E.f.E.i.i.i.e.n.p.k.u.H.f.s.e.S.q.g.f.n.j.i.n.l.g.f.f.f.f.i.i.i.i.i.i.e.e.n.i.o.i.o.n.e.c.b.i.T.n.i.eQtQt",
"Qt.V.T.g.g.f.f.C.n.o.k.n.k.j.u.e.f.K.c.q.c.t.e.f.t.n.i.A.y.i.l.i.y.n.m.y.k.y.u.m.l.l.I.I.m.l.u.j.f.b.b.E.i.n.iQtQt",
"Qt.G.g.g.E.g.e.C.n.l.k.o.v.i.t.f.g.F.q.T.n.n.k.e.j.i.j.u.i.p.n.j.i.o.i.n.i.i.i.i.j.u.j.u.u.l.k.n.c.E.b.b.z.i.i.#Qt",
"Qt.b.E.g.g.c.e.i.i.p.j.m.u.w.i.f.G.#.r.f.j.k.k.e.k.p.j.n.u.n.n.i.k.u.i.k.n.j.j.i.j.i.i.o.k.j.n.h.h.f.e.g.i.n.i.UQt",
"Qt.2.f.H.f.h.H.e.e.u.n.y.u.p.n.e.b.c.E.n.i.i.k.i.b.5.G.b.O.4.c.K.b.b.b.b.h.h.h.h.b.b.b.b.b.b.K.b.e.i.o.j.j.o.j.cQt",
"Qt.F.e.f.f.6.s.n.i.o.u.n.n.n.C.f.f.f.e.o.l.i.B.n.g.b.5.h.b.h.h.h.b.b.b.h.h.h.h.h.b.c.c.c.c.b.c.o.u.j.j.n.n.j.k.iQt",
"Qt.b.D.e.g.U.E.i.z.i.B.n.z.n.i.g.B.i.f.e.u.n.n.j.x.f.b.O.h.h.h.G.O.h.h.7.g.c.c.c.F.c.Q.n.f.i.i.i.t.n.y.w.k.n.j.i.h",
"Qt.h.i.H.c.V.E.e.i.e.o.n.i.o.e.e.w.i.o.n.u.w.n.i.i.f.G.h.h.b.8.a.b.5.F.g.c.g.2.c.G.G.n.e.e.i.n.l.l.k.i.i.i.A.i.n.g",
"Qt.G.f.f.g.b.K.i.z.n.w.j.C.y.n.l.j.u.n.M.u.n.n.z.e.c.b.h.h.h.b.e.e.i.i.i.i.e.f.i.e.e.o.g.r.o.j.k.k.j.u.l.j.F.o.e.i",
"Qt.h.T.f.h.b.9.i.i.i.k.j.m.o.i.i.B.i.n.l.u.j.i.i.E.g.h.#.h.b.f.k.n.k.i.j.A.n.i.n.i.B.i.u.i.n.u.k.o.y.k.j.i.i.w.i.n",
".q.b.G.b.c.c.K.i.s.i.i.i.y.k.n.j.k.i.k.u.k.j.i.i.s.g.Q.q.b.f.n.o.n.i.i.e.i.o.i.i.i.i.e.e.i.k.n.n.i.i.k.i.e.f.e.n.g",
".a.g.c.b.c.g.K.i.c.E.c.c.c.h.F.7.G.h.F.f.c.K.c.g.g.c.K.f.g.H.e.i.f.F.O.f.f.f.e.f.f.e.e.O.f.g.n.o.k.e.g.E.g.F.g.T.h",
".O.g.T.e.c.c.G.c.b.f.H.g.c.b.F.b.O.a.O.G.U.G.c.F.c.c.E.g.f.K.g.E.i.g.G.c.c#..G.i.f.f.f.f.g.f.f.i.i.e.g.g.K.c.c.c.h",
".O.g.F.e.c.g.b.F.f.b.E.2.c.b.h.c.b.O.b.O.O.X.F.V.b.b.O.F.q.c.b.T.f.b.F.b.c.c.b.T.g.b.b.T.f.E.#.f.q.g.f.c.g.T.g.g.h",
".O.g.G.f.K.g.c.O.f.g.c.b.T.e.g.G.g.b.q.#.8.F.f.g.2.b.h.O.h.c.c.O.#.U.G.b.F.g.c.b.K.c.b.b.b.r.Q.Q.#.f.i.i.c.T.g.h.#",
".a.c.f.h.c.b.G.a.O.g.2.b.b.E.i.f.c.F.O.h.c.E.i.i.e.c.b.h.O.8.#.Q.O.h.b.6.s.e.g.b.b.K.b.G.a.#.q.q.q.Q.b.G.b.c.g.hQt",
".r.f.e.g.g.b.T.a.Q.F.c.f.U.O.O.f.U.U.O.b.c.e.c.E.f.f.g.g.#.#.#.U.b.F.c.c.T.c.T.b.b.b.b.b.F.G.G.G.G.O.q.h.c.F.b.rQt",
".#.G.g.E.g.U.b.b.h.b.F.g.G.#.a.G.h.U.F.2.E.j.i.f.B.i.H.f.c.O.h.G.b.b.b.F.V.h.b.T.b.G.h.h.h.b.c.b.b.G.b.c.G.g.bQtQt",
"QtQt.O.b.c.T.g.c.g.h.b.r.qQt.#.b.h.b.c.c.K.f.i.f.n.g.b.O.8.b.b.G.b.b.b.G.U.G.b.b.b.h.h.b.b.h.G.h.X.G.b.h.r.rQtQtQt",
"QtQtQtQtQtQt.O.a.O.#.aQt.#QtQt.#.h.h.c.b.G.#.#QtQtQtQtQt.a.h.U.r.a.O.a.q.#.r.q.#.G.a.q.#.#.#.#QtQtQtQtQtQtQtQtQtQt"};
