/* XPM */
static char *dummy[]={
"64 78 60 1",
". c None",
"L c #000000",
"d c #080808",
"T c #08140c",
"a c #0c0c0c",
"X c #101c0c",
"i c #141414",
"Y c #142410",
"Q c #182c10",
"h c #1c140c",
"M c #1c1c1c",
"W c #1c3010",
"n c #201814",
"I c #202020",
"E c #241c0c",
"J c #242424",
"S c #243410",
"# c #28201c",
"H c #282828",
"U c #283810",
"D c #2c2010",
"K c #2c2c2c",
"R c #2c3c0c",
"r c #302410",
"j c #302420",
"F c #303030",
"b c #342810",
"m c #342c28",
"0 c #34400c",
"G c #383838",
"Z c #384410",
"g c #3c2810",
"l c #3c342c",
"V c #3c4810",
"q c #402c14",
"1 c #404c14",
"C c #443014",
"k c #443834",
"4 c #444c18",
"2 c #485020",
"f c #4c3418",
"t c #4c4038",
"A c #503818",
"e c #543c18",
"o c #544840",
"3 c #545828",
"c c #5c401c",
"u c #5c4c48",
"v c #604420",
"s c #64544c",
"p c #684c28",
"y c #6c5c54",
"z c #705030",
"x c #706058",
"w c #745838",
"B c #786860",
"5 c #7c5c40",
"N c #807064",
"O c #88746c",
"P c #907c70",
"............#aa#bcd#efghiii##hjkklhmhhkkmlm#nnn#jlkkmmjjlkomj#..",
"..........nn#jlllbpqcrlinjj#stojtmkjkuottou###omtoooookooootkmn.",
"........nnnnmtoogvwvvgjolltmtkjkmmjotottktnnnnjnlooosstsxsysokn.",
".......nnnnjllotqzcrrkuooosmkyjttjktttookn#l##oljoouuyosyysykm#.",
"......innn#kmltkAwqoluttoyxllt#lk#otnsootj#ksuulsmyuusuyBsykmkmn",
".....ninnnnmmlklzfljlottoByolklsjnooyomottjsuooksuBukousBuousuj#",
"....nnnn#nn#mllAwglktttoosBtktkuxooootj#ktoooootuuustkuyysusxolm",
"....n#n#mnCvpzwzcCkkktttuuutkokuyyotoouykooouuskssssoosxytsBstul",
"....nnnimeennmlDgjloosotsyskkoluysyouuottuusuustuussssysuosBsyst",
"...DDh##cC#n##lqjkoooBxoluttoolouuuuoototuuouooooooussxsoosyyuol",
"...EEfbeCnnDj#eDDmooouxotlktookoyuttoototsuotuttottooussuuysoklj",
"...EEbcCgrn#jvEiihh#jmmllktoookoByttttnBoBuoootkottouysutmnnnn..",
"...aanbAccgfcgj#Drhhinnnn#jmltjooxttotouuyutktokootkFGFHI#nnnn..",
"...hhnEDfcccfbllmnnnj#nnhhhhnnnJ#HKFFFFKKKHIinnnnnnnn###jjmljn..",
"...hhnE#ergcglttm#mjlkjllmj#nnhhiiaaaaaaiiaaadddn#mltomutllssj..",
"...##nnA##nDcqtmllllkklkttlljnnhhhhiiiiidddddadnjktoustsyukuom..",
"...nnnCA####gcgotkkkotlttklmmjnhn#nKJIi#m##adLMjkoooouoosuootl..",
"..DDgCnj###mDcqtmjnnnnnnnnnnnnnnn#jmmml##lma#dLnnnnnnnnjkoBotk..",
".EEbbnnjm#m#bcCklljm##nnnnnnnnnnn#mktoyouuxsolLdnnnnnjkoxBtoot..",
"aannnnnmmjmbegtmlkll#ljlmnnnnnnn#jlosBNyxsuyBujLdnjmkoxxuloootn.",
"nnninnnmmjCebtkjkkmkmlmjmnj#jjlkjltuuyxBBxssxBtnh#mmmltookoosom.",
"nnnin#m#mmetltotkjmllmmmljmmmmjmmlosousssssuusu#klmmooosutoottj.",
"##ii##jn#meklkkkklmm#llltmkljmmmllouotoolltokktmyotttosxBssukt#.",
"aaiii#lm#mmlmlmmlmltjttuulutlmmlkkousookmmtsoltkmotlmmsNNoslkkh.",
"haiiin##mmjm#mkkkotolooutkxttlmmklossuklmoooBNyslmml#joyyysusoh.",
"haaaiin#jmmljjmllokokoussotmjmmlltoxyoussBOxNBsNBstt#muysosuumh.",
"daaanianmlmllmmmlmmtssusukmjmmllotoutsBNBBNByssOPBBoosouuosojjk.",
"nnanjnii#ktttlj#jmootuoool##mmtltltooxxsxsssuouyBsojkysuusylsxi.",
"hhagnnnan#kttkllotuuuoooljn#jmmmmjmlkosyyxsoklktomkjjksyysyotka.",
"ddbinn#nnn#ilmooutlooookjnm#njmnnnn#mlousutkmnnjjmltjmtuuootkka.",
"ggai#ff#nn#mllusyyslltkmn#mljnnnnnn###mktkmj#njmmkyslomlttttmkd.",
"ggabegj#nnn#klsysktllkm#jjllll#mj#nhhnnn#hhnn#m#kyNskoljmokk#k..",
"ggCAq#n##nn#mjtolmmmlmjmmmklkljlmjjjnnhnnhn#jmmjsyyytuomjmk#jl..",
"EEggiinjj###mjkotmjmmnmlllkkkmltlkjmj#hnnnnnjjjkuuuolookmjknml..",
"..nniinnjE#Cmjtttmj#njlktkootottttkkm#jnnnnj#njlttkkjkkljjl#kl..",
"..aaniinCACgmjklmm#nnn#jlktooooooootlm#n#nnnn##jtttkmkkmmmkktl..",
"...nnn#iijeccjlmmj#nnjjlkooouuouoouuutkm###jlkltttklmtkm#ntttl..",
"...nnn#niinDcjmlm#nnjjltussssssssssussouooooookooootktkmnntltm..",
"...nnnm#nircrmllljnnjkkkkkkkkklllkkttktttllllkmkokkkkmmmnjlltm..",
"...nnnn#jncDjmltoljnkjjjnnnnnnnnnnnnnnnn#nnnnn##n#mmmkmjnjllom..",
"...nnngcccimjmtoutmmmjnnnnnnnjjnnnnnnnnnnnnnnnnnnnnnnmmnnmlloj..",
"...aagcgniimjmtosokntljn#nnmnnjnnjjjlmjnn#mm##jlmjnnnm#nnllkon..",
"...cccCjjii#mjlDtsomkutl##nnnjmljjj#######jjmjmlmj#n##mn#llkti..",
"...qqcqnnii#m##Dqsstjtuyokm######jltouuuuutkljn####jlkmnjltttd..",
"...iifgn#ni#mjjmmbuuknkuysuoklltosyyyyxyyussssotklkuuo#nkmook...",
"...adnnnm#QRSQTUpmtoslnkoyyyyyyyyyutuxxssotossssssuuomnjjtttl...",
"....#nnnjQRVUQSqvDlkosmjlkusssuokmltxssxssojmltouotljnjjottom...",
"....#nnnnUWXXDgvrljnlttj#mkootlm#kouoktoxxst#jmmmjnnnjnkoouom...",
"....hhnnnnWEqqerrmj#gcuoj###n#mtostlmjmltuxst###nnn#jmttuuuti...",
"....hhnnnnnneebrDmmljcgcgm#nmkoutcD#nn#mlktustl#mjn#mlltouoja...",
"....hhnnWnnnnnn#jlmlmccCDjjltukm#crn##j#jmmltsstlmllm#tuttlm....",
"....aanadn#nnnnnmmmmgqcqrJnjmmDDrbcr#mmj##mmjltoklfmnkotk##j....",
"....dnaYSnnnnnhmkmfcbfg##jmmj##jgbc#lmotjlmjjmlkpemttotttlm.....",
".....#aadUmn#j##mgcrM##mkmotmjll#qp#jltomtttklmjfplttotomVl.....",
".....haiYQWWW##qgSDinnmltksukmtkjfp#ltotmttlktosgvmtyokmVSh.....",
".....haiQadnnjqevRUQn#mtotsoolutmezStusomttlouVReejttlZVVVl.....",
".....aaSYaddSWcgbIS0njlotlosotolAvpmUotomtokoRRQcb#lllSQQW......",
".....dYYTnaUicgMnnYUnkktlklytokApbfj0ttolokktRvcbSZZllQQ##......",
"......YTa#nUCqiiJ#nY#kttjjsutomCCggj0kookllmvv#mjjVRYY#ml#......",
"......hia##SAfnnS##jjktooyuttojlgcgSokuokkqcCjlkjVRQjmksoa......",
"......iiaaneverS#nlmmmtototmmltmqpAUWoDpzwzppmmVVUYmlomtk#......",
"......dibcpcqCcrW#Almmlootjmlst#fcD0WCpqmmjqpgjRj##lomlm#R......",
".......bpbrjWbvqQgrJJJltojllutkjcpVDqvgj###jvCUm#jmutl1ZRQ......",
"......gcbianU#fpcpcAfJkoooklsslAcq2gzq#mmmm#bzRC#tuokVSWa.......",
"......qg#iiW#CciMIiefJmtgtoloumcg#1peblmtllm#fpA#lt1ZRnn........",
"........#niXSvcACnIgCcccfEololjEvj3#gAbltolok#qzfgZSWnjj........",
"........nnEgYYIiacEeiIJICACgmjnCvg2#mEfjlskokm0fw4Scqjlh........",
"........anDfaYDmWMeMJmlHJIeccAqgvc1#fgr#tkltklZm1Rvwcgt.........",
".........nCcaaEnSbcgHlllmHIDcCvcr1SYCn#mutltktjU1jjewAq.........",
".........qeWXTSUaccgImmmmmrcr#gcnWvCEnmutlmotml14Qj#p5C.........",
".........ebXWWYaccqniJmloHcD#mEfmcqEnnktjlmtllmU1Qmmczz.........",
"........rpnaYSaeDrcqn#gcccjjmk#qegj##jkjjmkoxVVmU4Qjzcb.........",
"........gvinaReDLLDcggcgn#jkktjgcD1##mllkmoyl1QWmU1Vcrhe........",
".......Debd#afrLLLLbccCn#mltot#DcrQ1##mmllskt1Q#jUZtCbhCe.......",
".......gD..EgrELaaaaqcqnjmkutml#qcrY1#nlllkk#0QnljmcghfDq.......",
".............aLLnaaaafgnnjloo#unjbc#1lj#kstjRWnnkjeCicD.rq......",
"..................ainnn#jj#moulnn##UUU#1m#YUQnY.bqCAfD..........",
"......................dnn#jjj#nnnSUU0RRUQXTQ...................."};
