/* XPM */
static char *dummy[]={
"62 95 68 2",
"Qt c None",
".Y c #000000",
".m c #080808",
".C c #0c0c0c",
".W c #0c100c",
".R c #101810",
".5 c #141414",
".7 c #141c14",
".# c #180c08",
".N c #182018",
".B c #1c140c",
".X c #1c1c1c",
".O c #1c241c",
".k c #201814",
".2 c #202020",
".8 c #20281c",
".n c #241c0c",
"#b c #242424",
"#. c #243024",
".b c #28201c",
".Q c #282828",
"## c #283824",
".K c #2c2010",
"#a c #2c2c2c",
".l c #302410",
".a c #302420",
".1 c #303030",
".L c #342810",
".o c #342c28",
".0 c #343434",
".3 c #34400c",
".6 c #384410",
".u c #3c2810",
".h c #3c342c",
".A c #402c14",
".T c #40503c",
".S c #443014",
".g c #443834",
".x c #444c18",
".P c #484848",
".v c #485020",
".c c #4c3418",
".i c #4c4038",
".Z c #4c6448",
".I c #503818",
".F c #505424",
".y c #50684c",
".D c #543c18",
".e c #544840",
".d c #545828",
".t c #585c30",
".9 c #5c401c",
".j c #5c4c48",
".w c #604420",
".q c #64544c",
".H c #684c28",
".f c #6c5c54",
".p c #705030",
".E c #706058",
".4 c #707070",
".r c #745838",
".G c #786860",
".s c #7c5c40",
".z c #806448",
".J c #807064",
".M c #88746c",
".U c #907054",
".V c #907c70",
"QtQtQtQtQtQtQtQtQt.#.a.b.a.c.b.d.e.f.e.e.g.h.i.g.j.j.e.h.g.a.i.i.a.k.l.b.b.a.a.b.b.a.b.b.b.kQtQtQtQtQtQtQtQtQtQtQtQtQtQtQtQt",
"QtQtQtQtQtQtQtQt.m.n.o.b.h.h.h.p.q.q.g.q.e.j.q.r.e.s.q.t.g.e.i.h.h.h.o.u.h.v.g.g.h.h.h.g.g.a.m.a.a.kQtQtQtQtQtQtQtQtQtQtQtQt",
"QtQtQtQtQtQtQtQt.#.n.a.w.o.x.g.q.q.j.v.e.j.y.e.z.i.i.j.p.j.g.A.a.n.b.b.B.i.i.r.g.v.h.h.g.h.h.a.g.g.bQtQtQtQtQtQtQtQtQtQtQtQt",
"QtQtQtQtQtQtQt.C.a.a.g.g.D.h.x.j.q.q.e.q.i.i.q.e.p.g.e.t.i.g.a.b.a.a.E.e.f.i.g.h.v.g.e.v.i.f.c.v.g.aQtQtQtQtQtQtQtQtQtQtQtQt",
"QtQtQtQtQtQtQt.k.b.A.i.o.h.g.g.i.q.e.F.e.j.G.t.e.H.e.e.i.d.o.a.D.i.g.o.b.e.w.i.o.c.g.h.g.q.e.g.e.g.h.mQtQtQtQtQtQtQtQtQtQtQt",
"QtQtQtQtQtQt.#.b.k.o.I.e.H.g.v.i.j.q.f.G.G.J.E.q.e.e.H.e.o.a.h.h.g.w.g.e.e.w.e.g.g.h.v.i.h.e.q.t.e.g.kQtQtQtQtQtQtQtQtQtQtQt",
"QtQtQtQtQtQt.a.k.#.b.i.i.p.e.h.h.j.v.e.i.i.e.j.w.e.e.q.e.a.h.w.g.g.g.e.e.e.e.p.e.w.h.g.q.j.j.e.i.j.q.aQtQtQtQtQtQtQtQtQtQtQt",
"QtQtQtQtQtQt.b.a.k.K.i.e.e.w.e.f.g.i.t.j.h.b.a.a.g.f.E.r.h.g.o.v.g.g.f.e.e.e.j.E.e.v.e.E.H.e.H.e.I.k.kQtQtQtQtQtQtQtQtQtQtQt",
"QtQtQtQtQt.m.L.b.b.#.c.j.i.F.j.G.i.g.h.A.a.a.g.o.o.j.M.E.a.i.g.h.e.E.t.i.a.o.h.q.p.i.v.i.e.q.j.q.i.b.hQtQtQtQtQtQtQtQtQtQtQt",
"QtQtQtQtQt.m.N.#.b.O.c.j.e.h.t.q.w.g.b.o.o.h.v.g.o.t.q.r.b.g.H.q.f.e.i.o.h.o.a.k.q.E.q.t.f.q.t.e.b.P.h.#QtQtQtQtQtQtQtQtQtQt",
"QtQtQtQtQt.m.b.#.a.Q.c.i.g.g.q.f.t.o.p.i.g.h.p.e.g.o.G.G.q.j.i.q.z.j.b.g.g.g.g.a.a.g.H.q.q.J.t.k.h.e.g.kQtQtQtQtQtQtQtQtQtQt",
"QtQtQtQtQt.#.a.b.o.a.g.t.i.g.r.j.r.e.e.q.j.q.q.e.v.o.b.q.r.j.e.E.J.o.g.q.v.i.h.h.g.a.o.i.q.E.b.o.g.g.h.#QtQtQtQtQtQtQtQtQtQt",
"QtQtQtQtQt.R.A.o.h.u.g.v.h.h.z.g.f.z.i.e.j.i.f.e.q.h.h.o.d.e.t.q.a.e.e.e.g.x.h.x.g.h.a.h.e.q.q.g.i.g.h.mQtQtQtQtQtQtQtQtQtQt",
"QtQtQtQtQt.k.K.o.h.S.e.w.v.g.h.h.f.z.e.j.G.J.J.G.j.e.g.h.w.j.q.r.o.e.z.g.i.g.g.w.h.h.g.s.f.f.e.e.r.o.hQtQtQtQtQtQtQtQtQtQtQt",
"QtQtQtQtQt.a.n.k.k.b.g.g.p.g.i.h.T.z.j.G.q.e.J.U.G.r.q.j.e.t.q.s.E.g.i.H.g.g.g.h.v.g.v.q.J.z.G.q.i.e.hQtQtQtQtQtQtQtQtQtQtQt",
"QtQtQtQtQt.b.k.k.K.b.v.g.r.g.e.p.e.y.G.J.q.t.r.G.i.h.a.b.a.h.a.b.e.e.g.g.v.g.p.g.g.g.v.E.q.E.J.q.r.j.i.kQtQtQtQtQtQtQtQtQtQt",
"QtQtQtQtQt.k.k.k.l.o.i.i.e.i.i.e.H.e.F.f.j.j.t.e.o.g.g.i.j.i.r.i.b.i.i.g.g.j.i.r.j.e.z.f.b.o.a.f.i.t.e.bQtQtQtQtQtQtQtQtQtQt",
"QtQtQtQtQt.n.k.k.L.a.e.i.v.q.g.j.e.e.f.V.J.j.e.t.h.e.e.g.j.v.i.i.p.b.t.q.g.g.i.j.e.q.r.a.h.i.e.a.h.f.i.WQtQtQtQtQtQtQtQtQtQt",
"QtQtQtQtQt.b.k.k.k.A.o.e.g.h.a.j.i.b.g.q.q.e.e.e.q.v.s.i.i.i.z.i.g.e.r.G.q.G.q.j.j.g.b.o.i.q.e.e.a.o.o.kQtQtQtQtQtQtQtQtQtQt",
"QtQtQtQtQt.b.k.K.k.k.b.g.o.A.C.i.a.v.g.e.q.q.J.J.f.g.v.q.f.q.e.s.q.E.q.b.h.q.f.M.t.b.o.g.z.q.q.q.e.g.a.fQtQtQtQtQtQtQtQtQtQt",
"QtQtQtQtQt.N.k.k.k.k.k.b.b.L.i.b.g.x.i.e.q.y.M.G.q.q.q.t.q.t.q.t.z.G.b.h.b.h.q.q.b.o.g.i.j.q.f.i.h.h.E.gQtQtQtQtQtQtQtQtQtQt",
"QtQtQtQtQt.k.k.X.b.k.k.k.b.Y.K.o.g.h.i.q.j.g.V.G.t.q.f.o.b.a.b.a.o.h.i.i.g.b.j.b.a.g.i.Z.s.i.g.h.J.r.E.eQtQtQtQtQtQtQtQtQtQt",
"QtQtQtQtQt.K.k.n.g.a.k.k.f.e.i.i.v.g.g.g.x.h.i.J.f.j.t.b.h.g.g.i.g.i.q.z.e.a.e.b.o.r.i.e.e.x.h.J.J.b.b.e.WQtQtQtQtQtQtQtQtQt",
"QtQtQtQtQt.k.k.k.k.i.j.k.k.f.e.o.e.E.e.j.e.i.i.q.q.q.t.j.a.h.v.g.v.i.z.e.p.h.q.a.h.i.i.i.i.g.t.s.b.h.r.e.bQtQtQtQtQtQtQtQtQt",
"QtQtQtQtQt.n.o.k.k.k.k.o.b.k.i.v.f.q.q.E.t.i.F.b.E.e.i.t.j.E.a.h.g.v.e.e.i.i.f.h.g.s.i.v.i.o.j.b.o.i.e.i.hQtQtQtQtQtQtQtQtQt",
"QtQtQtQt.W.#.a.a.b.k.o.g.h.k.e.E.i.w.i.e.w.e.b.a.h.b.i.t.e.f.b.o.h.g.s.i.g.q.f.o.g.i.j.i.v.a.f.b.g.h.v.i.gQtQtQtQtQtQtQtQtQt",
"QtQtQtQt.#.k.K.#.a.b.x.g.i.b.t.r.j.H.e.i.b.a.h.e.i.a.a.D.i.i.t.e.o.h.g.g.q.e.q.a.i.i.i.g.g.q.f.a.i.i.o.i.g.WQtQtQtQtQtQtQtQt",
"QtQtQtQt.R.k.k.n.o.g.e.e.i.k.q.q.j.b.a.h.h.g.i.e.s.i.g.a.G.D.e.i.b.a.h.j.j.h.e.b.h.g.i.i.q.e.i.b.g.r.i.v.g.bQtQtQtQtQtQtQtQt",
"QtQtQtQt.k.k.K.a.a.g.g.g.a.e.d.i.c.i.h.h.I.h.g.a.h.A.a.h.h.a.h.o.o.b.a.h.h.b.a.k.a.h.g.j.i.i.g.a.i.e.i.g.v.g.WQtQtQtQtQtQtQt",
"QtQtQtQt.k.k.a.o.a.a.b.k.k.k.k.k.k.k.k.m.m.m.m.m.m.m.m.k.k.k.b.h.g.i.h.h.h.a.b.k.m.m.k.b.g.i.b.C.m.k.k.k.k.k.kQtQtQtQtQtQtQt",
"QtQtQtQt.k.L.a.a.b.k.k.k.k.b.a.0.1.2.X.b.k.m.m.m.m.m.m.k.k.a.a.q.q.j.j.i.o.g.v.h.k.C.m.k.b.k.C.k.k.k.b.b.a.a.k.kQtQtQtQtQtQt",
"QtQtQtQt.X.k.l.b.k.k.k.k.a.I.t.q.b.h.g.g.o.b.b.k.k.m.m.k.b.h.e.E.q.q.r.a.i.i.g.3.o.k.C.C.C.k.b.b.b.a.o.g.e.g.o.kQtQtQtQtQtQt",
"QtQtQtQt.k.k.b.b.k.k.k.k.o.g.i.k.h.g.e.e.i.g.o.b.k.k.m.k.o.g.g.J.s.i.o.E.b.o.g.q.t.k.k.k.k.b.a.h.g.e.e.v.e.e.g.bQtQtQtQtQtQt",
"QtQtQtQt.k.l.k.k.k.k.k.a.c.i.b.a.g.q.f.j.e.g.h.a.b.b.k.k.o.e.h.4.G.h.r.f.j.E.f.q.q.a.k.k.b.w.g.e.g.r.j.e.i.i.o.bQtQtQtQtQtQt",
"QtQtQtQt.b.k.k.k.b.k.k.k.a.k.b.h.i.j.q.j.e.g.a.b.b.k.k.k.a.i.g.o.J.e.g.j.E.f.t.q.q.h.k.k.b.h.x.e.e.q.w.e.v.e.b.bQtQtQtQtQtQt",
"QtQtQtQt.l.k.k.k.a.b.#.k.k.k.a.a.h.g.g.g.h.A.a.a.b.k.k.k.b.g.h.o.a.E.t.f.e.i.q.t.q.o.k.b.b.o.g.i.e.j.e.g.g.b.k.kQtQtQtQtQtQt",
"QtQtQt.m.k.k.k.a.k.a.a.b.k.b.b.a.b.b.a.a.b.n.W.b.b.A.b.k.K.g.K.h.o.G.t.e.z.i.j.j.r.h.b.k.k.b.x.o.a.g.h.a.b.k.kQtQtQtQtQtQtQt",
"QtQtQt.m.5.k.k.a.b.o.g.a.b.k.k.k.b.b.K.b.b.n.k.b.g.i.b.k.K.h.h.w.g.f.h.i.e.j.t.e.g.v.b.k.k.k.b.k.k.k.k.l.b.nQtQtQtQtQtQtQtQt",
"QtQtQt.#.k.k.k.a.o.b.h.g.g.o.b.k.k.k.k.k.o.b.b.g.j.e.h.k.l.h.g.i.G.f.a.v.j.q.e.H.e.g.a.k.k.b.b.b.b.k.l.o.h.kQtQtQtQtQtQtQtQt",
"QtQtQt.#.k.k.k.k.a.a.k.h.e.g.g.a.a.a.g.e.j.o.i.j.e.g.a.k.k.u.b.q.G.o.g.t.j.j.g.e.H.t.g.k.b.a.h.g.g.h.a.w.g.bQtQtQtQtQtQtQtQt",
"QtQtQt.k.a.b.k.k.a.h.a.k.h.e.j.q.f.q.e.g.o.g.j.e.g.h.a.k.k.a.a.e.o.g.e.J.j.t.j.e.j.r.i.b.a.i.r.e.i.i.g.x.o.aQtQtQtQtQtQtQtQt",
"QtQt.#.k.a.k.b.k.k.b.o.b.a.g.g.i.e.j.j.j.j.e.e.j.h.g.b.b.k.b.e.4.f.p.q.G.e.j.f.j.j.E.e.a.i.e.e.e.e.i.i.i.h.aQtQtQtQtQtQtQtQt",
"QtQtQt.k.k.b.k.k.k.b.a.o.o.a.b.a.a.h.g.i.e.g.j.q.i.o.a.b.l.b.i.f.f.E.f.b.o.b.q.t.f.G.j.o.q.v.i.e.e.j.g.r.h.b.mQtQtQtQtQtQtQt",
"QtQtQt.k.k.k.k.a.k.k.h.h.i.h.h.o.h.g.g.g.g.o.o.o.a.b.b.h.b.l.o.e.q.b.o.g.x.h.b.j.e.E.i.a.g.i.i.i.i.v.g.g.v.o.kQtQtQtQtQtQtQt",
"QtQtQt.k.k.k.k.b.b.k.k.k.i.j.I.h.o.h.i.E.G.f.G.j.e.q.q.g.a.k.b.a.o.g.i.g.H.q.g.h.a.b.k.o.g.v.i.g.e.g.g.c.g.g.bQtQtQtQtQtQtQt",
"QtQtQt.k.k.k.n.b.b.k.k.b.k.G.g.F.e.G.E.G.r.k.b.b.b.b.b.e.o.k.k.o.g.o.i.g.v.e.p.i.g.h.a.a.h.t.i.g.H.i.g.h.v.g.hQtQtQtQtQtQtQt",
"QtQtQt.k.k.k.b.b.b.b.b.b.h.e.i.t.E.E.q.F.q.k.b.o.g.e.g.o.b.k.b.g.o.g.g.g.g.g.i.v.e.e.h.h.D.h.v.g.g.v.e.g.w.g.g.#QtQtQtQtQtQt",
"QtQtQt.k.R.k.k.#.a.h.b.b.H.G.G.h.a.h.j.e.G.q.a.h.i.j.g.s.a.b.o.a.h.h.x.g.i.g.h.g.v.i.i.b.h.i.g.e.e.g.i.e.o.h.g.bQtQtQtQtQtQt",
"QtQtQt.k.R.k.b.L.h.g.a.h.g.z.j.r.o.a.o.F.e.i.g.b.a.g.h.p.h.K.g.w.h.a.o.6.h.p.i.g.g.g.e.b.o.v.i.e.e.e.g.g.i.b.h.aQtQtQtQtQtQt",
"QtQtQt.k.R.k.k.A.g.i.g.h.g.i.r.g.v.g.k.c.g.c.h.F.b.g.h.g.h.k.h.g.j.g.g.g.g.i.i.v.g.h.i.k.a.g.i.v.i.i.H.h.v.k.a.h.mQtQtQtQtQt",
"QtQt.m.k.7.R.k.b.e.e.i.i.o.v.i.h.x.i.p.j.i.i.b.t.i.v.o.b.b.R.A.h.q.i.o.g.h.g.g.g.r.g.i.k.x.g.g.e.e.i.i.g.b.k.e.g.bQtQtQtQtQt",
"QtQt.m.k.N.k.k.b.i.e.g.h.o.h.g.D.g.e.e.H.b.h.h.b.f.i.o.b.b.b.A.h.j.i.g.o.g.D.g.h.g.e.i.k.b.o.h.e.i.h.v.o.k.j.p.g.oQtQtQtQtQt",
"Qt.#.B.k.N.R.k.k.g.f.h.o.a.I.h.h.i.i.f.q.b.i.g.o.o.g.e.g.i.h.a.x.e.i.g.o.h.g.g.v.g.i.e.b.b.i.o.b.g.i.g.v.j.g.v.i.g.kQtQtQtQt",
"QtQt.5.n.8.7.k.k.i.q.o.b.a.I.o.c.g.i.q.e.e.e.w.b.o.e.q.E.g.g.g.g.i.g.e.g.w.g.h.x.g.e.g.o.h.g.g.o.a.j.i.i.z.g.h.v.h.bQtQtQtQt",
"Qt.#.m.n.O.8.k.b.h.e.a.b.b.o.a.a.a.i.q.c.i.b.k.k.g.g.e.v.i.h.g.v.f.e.g.g.g.e.e.e.g.g.e.h.h.v.j.h.h.b.h.h.e.g.9.h.h.bQtQtQtQt",
"QtQt.m.##.##.b.k.k.a.a.k.i.I.h.h.a.h.j.h.k.k.Y.k.o.g.o.h.g.h.g.v.e.f.e.g.i.e.e.e.e.g.i.g.e.q.e.g.o.b.k.o.h.b.b.D.v.bQtQtQtQt",
"QtQt.m.#.#.#.#.k.k.b.k.k.h.D.g.o.b.h.j.h.b.m.m.Y.b.o.w.h.i.a.o.g.g.q.q.e.e.e.i.i.i.g.g.i.v.o.a.b.b.k.k.k.k.k.g.h.b.kQtQtQtQt",
"QtQt.#.#.k.N.N.R.R.k.b.h.i.g.o.k.o.b.k.a.k.m.k.k.k.b.b.o.k.b.k.k.b.a.o.a.h.i.i.g.g.i.h.h.o.N.n.k.k.a.b.k.b.i.g.H.k.kQtQtQtQt",
"QtQt.R.K.k.k.R.R.m.a.h.e.c.h.k.k.b.h.a.k.W.k.k.a.k.k.k.k.b.k.k.#.n.n.n.n.N.l.N.k.n.k.k.K.k.k.k.b.x.i.e.a.g.g.o.o.a.hQtQtQtQt",
"QtQt.m.n.k.k.k.m.b.g.j.i.h.k.#.o.g.h.b.W.k.k.o.o.b.b.b.a.k.k.k.#.W.W.k.#.W.#.k.R.k.k.k.k.b.b.a.o.h.h.g.h.i.o.a.g.g.a.mQtQtQt",
"QtQt.#.m.k.k.k.k.e.F.q.i.b.m.o.e.g.a.k.m.k.o.o.o.o.g.i.i.i.L.g.o.o.g.h.h.o.b.l.o.b.5.l.h.g.e.e.w.g.g.g.h.a.k.b.o.w.a.mQtQtQt",
"QtQt.b.m.k.k.k.h.q.r.h.b.k.a.i.g.a.X.m.b.b.g.g.g.9.g.A.A.9.A.h.v.i.r.i.h.e.g.h.x.g.g.h.v.h.i.g.g.v.i.e.h.g.b.b.o.h.o.kQtQtQt",
"QtQt.b.k.k.k.o.e.q.i.h.k.b.i.g.o.m.k.5.b.b.i.g.g.i.q.r.c.9.9.9.9.I.e.e.g.i.e.g.g.e.i.i.g.g.g.i.9.g.a.r.i.e.a.b.b.D.h.kQtQtQt",
"QtQt.k.k.k.k.h.q.i.S.b.b.g.h.a.b.m.k.b.a.g.b.a.e.e.e.g.I.9.A.c.I.w.p.H.I.S.L.g.h.H.g.p.g.v.h.g.g.b.b.q.e.r.h.b.b.h.h.kQtQtQt",
"QtQt.K.b.b.k.L.e.a.a.o.j.i.h.b.#.W.b.b.a.o.o.g.g.e.i.e.c.9.S.i.j.e.e.e.u.I.9.9.g.g.g.i.j.e.r.h.h.a.j.g.g.h.v.b.k.o.h.kQtQtQt",
"QtQt.k.K.b.k.K.a.b.A.i.q.I.a.k.k.W.b.b.g.i.a.a.a.g.i.e.A.9.L.e.e.f.j.j.i.p.A.9.i.v.i.e.e.q.q.i.i.e.v.h.h.o.e.o.k.a.a.bQtQtQt",
"Qt.n.A.A.D.l.l.b.k.k.i.j.j.b.m.W.W.5.o.e.g.b.l.b.g.g.e.L.I.L.e.e.f.g.v.h.o.K.9.b.k.k.b.a.o.g.e.i.f.v.e.h.i.e.g.b.b.h.bQtQtQt",
".n.u.D.D.L.l.K.k.b.o.k.A.q.a.m.m.W.m.b.b.k.b.a.h.h.g.e.K.S.I.A.L.i.o.a.b.b.k.9.K.k.k.k.k.k.k.b.o.g.e.i.v.i.h.a.k.b.h.aQtQtQt",
".#.K.l.l.k.k.k.b.h.g.b.h.w.k.m.m.m.m.k.k.#.m.h.a.l.k.b.A.l.D.9.l.k.b.b.o.a.K.9.S.K.g.g.h.a.b.b.b.b.o.g.h.o.k.b.k.k.g.aQtQtQt",
"Qt.#.a.k.k.k.k.o.e.i.u.h.a.k.k.W.m.m.m.m.m.b.k.k.k.k.k.W.w.9.c.K.a.i.a.b.b.v.l.9.c.g.g.i.x.h.a.a.k.b.b.b.a.a.k.k.k.g.aQtQtQt",
"Qt.m.k.K.k.k.b.g.e.c.9.L.#.k.b.k.m.Y.m.m.m.k.k.#.b.k.#.9.c.k.k.h.g.i.h.h.e.D.h.H.D.i.g.e.h.a.a.D.h.o.a.k.a.k.k.k.h.h.oQtQtQt",
"Qt.m.k.n.k.k.o.e.u.9.l.#.#.W.k.b.k.k.k.b.a.Y.k.K.k.m.H.c.k.h.o.o.x.i.g.o.e.e.e.c.H.i.e.e.i.i.i.g.g.g.g.a.k.k.k.k.g.h.h.mQtQt",
"Qt.#.b.b.k.k.l.u.D.K.#.W.m.k.b.b.o.k.k.k.k.Y.k.k.u.H.S.Y.b.o.h.h.v.h.v.h.i.s.i.u.w.e.g.w.g.h.i.i.i.i.h.h.h.k.k.a.g.h.g.#QtQt",
"Qt.k.l.k.#.K.D.w.L.W.W.k.b.k.b.b.h.S.a.k.k.k.Y.k.u.H.Y.m.o.a.h.g.h.h.a.o.g.g.i.D.S.g.g.g.r.g.S.i.i.g.g.g.b.b.b.u.x.h.h.kQtQt",
".K.m.k.K.l.9.u.L.5.W.k.k.b.a.b.o.o.a.o.L.k.k.k.b.u.H.Y.k.b.b.a.o.o.a.h.o.o.o.L.9.L.a.h.o.o.g.h.h.g.g.g.a.b.k.k.b.w.g.h.kQtQt",
"Qt.L.#.L.9.u.2#a.g.k.k.b.h.g.I.a.h.A.a.o.k.c.a.b.u.p.Y.Y.k.b.b.b.b.b.a.o.l.9.S.L.k.k.k.b.b.a.c.o.o.o.a.g.b.b.g.h.x.i.o.kQtQt",
"Qt.m.l.9.A.2#a.v.g.k.k.a.g.h.g.i.g.L.a.c.k.k.b.b.D.9.Y.Y.m.k.k.k.k.b.b.9.S.L.k.k.k.k.k.k.k.k.S.a.a.a.k.b.e.g.g.k.h.H.h.aQtQt",
"Qt.m.m.D.c#b.g.h.g.k.k.b.e.i.i.g.e.b.b.L.a.k.k.k.9.u.k.Y.k.Y.k.k.k.A.D.S.k.k.k.k.b.b.k.k.k.k.k.b.b.b.k.k.b.e.g.o.g.j.e.iQtQt",
".m.m.m.u.H.l.g.g.h.b.k.k.b.e.q.g.g.o.Y.m.L.b.k.k.H.n.b.b.k.K.H.w.H.p.9.I.k.b.a.b.b.b.b.b.b.k.b.b.b.b.k.k.k.i.e.g.A.w.p.9.kQt",
".Y.m.m.m.D.9.l.h.h.I.a.b.o.g.i.j.g.h.h.h.a.A.a.b.p.K.k.k.S.H.A.b.k.k.A.w.u.g.i.g.h.o.a.c.o.o.o.b.k.b.k.b.o.h.v.L.D.l.u.l.kQt",
".m.k.m.m.K.w.A.l.u.l.k.A.g.i.e.j.e.g.q.h.g.g.o.h.9.A.K.A.w.u.b.k.k.k.L.9.S.e.e.i.i.g.g.h.o.a.b.k.k.b.a.o.i.h.g.D.l.b.h.g.aQt",
".m.m.m.m.#.c.H.9.H.9.I.c.a.i.e.q.j.g.i.v.a.b.I.g.g.9.u.p.A.b.k.o.b.k.k.L.9.I.S.a.b.b.b.b.o.k.k.k.b.o.g.g.g.i.g.w.L.a.w.g.o.k",
".m.k.k.k.S.9.k.k.k.k.D.c.u.b.h.G.h.i.h.o.b.X.A.g.g.u.H.D.L.h.g.e.q.i.a.b.c.p.I.a.b.b.b.b.b.a.a.e.i.g.h.v.e.g.v.I.c.e.x.g.a.b",
".m.#.k.b.w.9.I.S.k.k.u.S.9.9.9.c.n.o.S.a.k.m.n.o.h.S.9.u.I.L.i.g.i.e.i.h.o.A.s.c.u.l.L.b.b.b.g.h.v.i.h.g.v.g.H.u.9.e.h.c.b.n",
".#.n.b.9.b.k.k.k.9.n.D.g.g.g.n.S.I.S.u.m.Y.Y.k.A.u.9.u.#.n.c.l.g.g.v.g.h.h.i.c.r.p.s.9.A.h.g.h.g.b.g.g.g.h.h.g.K.u.g.o.b.k.m",
".W.K.c.b.k.K.k.k.A.D.b.b.n.b.b.K.#.D.9.9.I.A.u.w.9.u.#.c.u.l.X.X.a.o.h.h.o.h.i.i.I.w.r.9.u.b.i.g.g.g.h.a.b.b.o.S.n.h.o.k.bQt",
".k.l.9.k.k.n.a.m.L.9.u.k.b.b.m.m.m.#.K.9.S.w.9.l.#.k.D.S.n.m.m.m.m.2#b.Q.h.o.i.e.e.e.D.r.I.A.g.a.a.2.b.b.N.b.c.#.W.k.a.k.bQt",
".l.D.k.k.k.#.b.K.9.9.u.R.b.K.b.n.#.l.9.l.b.u.9.#.k.w.S.n.W.m.K.b.k.W.k.2#b.h.h.h.h.h.i.H.s.S.A.u.u.u.b.b.b.S.#.m.b.k.b.k.#Qt",
".I.L.k.k.n.b.#.9.9.A.a.k.b.a.b.b.b.9.K.Y.Y.n.c.b.9.A.n.m.m.b.L.a.W.n.X.X.X.a.a.a.a.a.a.w.I.p.r.p.9.9.u.9.I.#.m.5.K.l.b.k.mQt",
".L.k.k.k.#.n.D.K.l.9.A.a.o.u.9.9.9.a.k.k.k.#.A.D.u.#.m.m.b.b.b.R.K.W.X.X.X.X.b.b.L.b.l.9.K.#.n.n.K.l.9.9.#.m.5.b.k.b.b.kQtQt",
".m.k.k.#.#.D.K.m.m.K.9.u.u.9.u.g.h.a.b.k.k.k.u.9.K.m.m.a.a.b.#.W.W.m.W.m.5.k.l.b.o.o.#.9.l.k.m.m.m.m.K.9.L.m.W.#.k.k.k.#QtQt",
"Qt.m.k.#.c.l.n.m.m.#.L.9.9.S.b.o.b.b.b.b.k.a.K.9.l.m.m.b.l.5.k.W.5.m.W.5.X.A.g.h.v.b.k.9.L.m.W.k.W.m.m.K.9.l.W.k.k.k.mQtQtQt",
"QtQt.n.u.l.n.m.#.W.W.#.A.9.A.Y.m.Y.Y.m.#.n.N.K.A.9.l.W.k.k.n.k.W.5.5.5.b.b.n.h.b.m.k.9.u.k.W.k.W.k.m.Y.Y.u.9.k.m.mQtQtQtQtQt",
"QtQtQtQtQt.m.m.m.m.#.W.#.c.u.#.m.m.m.m.b.b.k.m.m.L.9.W.W.W.m.k.m.W.X.n.5.W.W.m.m.m.9.S.k.m.m.m.m.m.Y.Y.m.K.9QtQtQtQtQtQtQtQt",
"QtQtQtQtQtQtQtQtQtQtQtQtQt.m.m.m.#.m.#.k.K.#.m.m.k.m.mQtQtQtQtQtQtQtQtQtQtQtQtQtQtQtQtQtQtQtQtQtQtQtQtQtQtQtQtQtQtQtQtQtQtQt"};
